<?xml version="1.0" encoding="UTF-8" standalone="no"?>
<!DOCTYPE svg
    PUBLIC "-//W3C//DTD SVG 1.1//EN" "http://www.w3.org/Graphics/SVG/1.1/DTD/svg11.dtd">
<svg width="100%" height="100%" viewBox="0 0 512 512" version="1.1"
    xmlns="http://www.w3.org/2000/svg"
    xmlns:xlink="http://www.w3.org/1999/xlink" xml:space="preserve"
    xmlns:serif="http://www.serif.com/"
    style="fill-rule:evenodd;clip-rule:evenodd;stroke-linejoin:round;stroke-miterlimit:2;">
    <g transform="matrix(1,0,0,1,-1262.27,-4384)">
        <g id="Icon_White"
            transform="matrix(0.47141,0,0,0.569365,1254.31,1887.56)">
            <rect x="16.895" y="4384.6" width="1086.1" height="899.248"
                style="fill:none;" />
            <g transform="matrix(0.424933,0,0,0.331605,103.994,4562)">
                <g transform="matrix(1.3126,0,0,1.3126,-58.3797,-812.583)">
                    <path
                        d="M352.413,1158.44C352.222,1157.79 351.062,1158.46 350.384,1158.46C306.141,1158.46 270.222,1122.55 270.222,1078.3C270.222,1034.06 306.141,998.141 350.384,998.141C394.626,998.141 430.545,1034.06 430.545,1078.3C430.545,1110.17 386.169,1122.16 384.954,1150.64C383.5,1184.7 410.779,1261.13 421.825,1282.7C426.314,1291.46 449.865,1306.57 459.909,1306.57C478.602,1306.57 493.366,1303.24 504.562,1289.1C535.451,1250.09 625.203,1107.82 636.571,1045.97C645.187,999.083 572.768,970.239 572.768,917.98C572.768,829.495 644.606,757.657 733.091,757.657C821.576,757.657 893.414,829.495 893.414,917.98C893.414,963.532 838.327,993.52 843.828,1033.87C849.329,1074.22 909.97,1139.32 926.423,1160.09C929.777,1164.32 939.971,1160.07 949.831,1159.53C994.007,1157.1 1022.71,1194.38 1022.71,1238.63C1022.71,1264.05 988.818,1278.44 992.371,1301.41C997.757,1336.24 1036.61,1424.44 1055.03,1447.6C1065.07,1460.22 1086.21,1440.32 1102.87,1440.32C1145.05,1440.32 1182.99,1497.27 1212.08,1483.31C1237.17,1471.27 1269,1430.25 1284.01,1412.16C1284.23,1411.89 1285.87,1408.8 1286.07,1408.54C1286.83,1407.64 1286.63,1395.67 1286.45,1394.73C1285.74,1391.02 1283.57,1381.34 1282.6,1379.9C1257.83,1343.24 1274,1308.98 1310.66,1284.22C1347.32,1259.45 1397.19,1269.11 1421.95,1305.77C1446.72,1342.43 1437.06,1392.3 1400.4,1417.07C1371.85,1436.36 1332.96,1397.12 1308.81,1415.8C1285.26,1434.01 1245.46,1471.67 1227.88,1500.31C1211.28,1527.35 1263.19,1562.68 1263.19,1600.65C1263.19,1689.13 1191.35,1760.97 1102.87,1760.97C1032.43,1760.97 994.382,1666.46 951.041,1652.24C915.975,1640.73 886.847,1661.51 862.15,1666.75C854.9,1668.29 846.544,1680.85 846.544,1682.59C846.544,1726.83 807.071,1760.97 762.828,1760.97C718.586,1760.97 682.667,1725.05 682.667,1680.81C682.667,1636.57 718.586,1600.65 762.828,1600.65C797.285,1600.65 807.865,1648.15 838.017,1652.97C868.411,1657.83 905.116,1639.85 922.538,1631.13C931.263,1626.76 939.658,1611.71 942.545,1600.65C957.338,1543.96 1018.32,1510.05 1020.99,1462.81C1023.67,1415.56 969.583,1341.34 958.578,1317.18C958.07,1316.07 956.176,1317.64 954.961,1317.83C950.914,1318.46 946.768,1318.79 942.545,1318.79C911.802,1318.79 898.714,1270.67 871.632,1276.02C814.892,1287.22 660.558,1356.88 616.422,1382.97C603.488,1390.62 611.556,1421.26 611.556,1440.32C611.556,1528.81 539.717,1600.65 451.232,1600.65C362.748,1600.65 290.909,1528.81 290.909,1440.32C290.909,1373.61 379.516,1339.2 389.766,1292.22C399.636,1246.99 358.977,1180.73 352.413,1158.44ZM544.204,1309.73C537.417,1335.46 570.752,1380.04 595.691,1370.75C647.932,1351.29 807.471,1279.21 854.002,1263.79C861.041,1261.45 873.23,1230 873.23,1222.36C873.23,1201.73 871.015,1191.04 864.877,1172.89C854.943,1143.52 832.752,1068.86 802.779,1062.38C778.069,1057.04 761.964,1050.97 736.995,1050.97C716.749,1050.97 699.594,1055.77 675.627,1067.68C631.043,1089.84 557.527,1259.22 544.204,1309.73Z"
                        style="fill:rgb(156,156,156);" />
                </g>
                <g
                    transform="matrix(1.31251,0,-0.00490513,1.31268,-42.7758,-825.139)">
                    <path
                        d="M352.413,1158.44C352.222,1157.79 351.062,1158.46 350.384,1158.46C306.141,1158.46 270.222,1122.55 270.222,1078.3C270.222,1034.06 306.141,998.141 350.384,998.141C394.626,998.141 430.545,1034.06 430.545,1078.3C430.545,1110.17 386.169,1122.16 384.954,1150.64C383.5,1184.7 410.779,1261.13 421.825,1282.7C426.314,1291.46 449.865,1306.57 459.909,1306.57C478.602,1306.57 493.366,1303.24 504.562,1289.1C535.451,1250.09 625.203,1107.82 636.571,1045.97C645.187,999.083 572.768,970.239 572.768,917.98C572.768,829.495 644.606,757.657 733.091,757.657C821.576,757.657 893.414,829.495 893.414,917.98C893.414,963.532 838.327,993.52 843.828,1033.87C849.329,1074.22 909.97,1139.32 926.423,1160.09C929.777,1164.32 939.971,1160.07 949.831,1159.53C994.007,1157.1 1022.71,1194.38 1022.71,1238.63C1022.71,1264.05 988.818,1278.44 992.371,1301.41C997.757,1336.24 1036.61,1424.44 1055.03,1447.6C1065.07,1460.22 1086.21,1440.32 1102.87,1440.32C1145.05,1440.32 1182.99,1497.27 1212.08,1483.31C1237.17,1471.27 1269,1430.25 1284.01,1412.16C1284.23,1411.89 1285.87,1408.8 1286.07,1408.54C1286.83,1407.64 1286.63,1395.67 1286.45,1394.73C1285.74,1391.02 1283.57,1381.34 1282.6,1379.9C1257.83,1343.24 1274,1308.98 1310.66,1284.22C1347.32,1259.45 1397.19,1269.11 1421.95,1305.77C1446.72,1342.43 1437.06,1392.3 1400.4,1417.07C1371.85,1436.36 1332.96,1397.12 1308.81,1415.8C1285.26,1434.01 1245.46,1471.67 1227.88,1500.31C1211.28,1527.35 1263.19,1562.68 1263.19,1600.65C1263.19,1689.13 1191.35,1760.97 1102.87,1760.97C1032.43,1760.97 994.382,1666.46 951.041,1652.24C915.975,1640.73 886.847,1661.51 862.15,1666.75C854.9,1668.29 846.544,1680.85 846.544,1682.59C846.544,1726.83 807.071,1760.97 762.828,1760.97C718.586,1760.97 682.667,1725.05 682.667,1680.81C682.667,1636.57 718.586,1600.65 762.828,1600.65C797.285,1600.65 807.865,1648.15 838.017,1652.97C868.411,1657.83 905.116,1639.85 922.538,1631.13C931.263,1626.76 939.658,1611.71 942.545,1600.65C957.338,1543.96 1018.32,1510.05 1020.99,1462.81C1023.67,1415.56 969.583,1341.34 958.578,1317.18C958.07,1316.07 956.176,1317.64 954.961,1317.83C950.914,1318.46 946.768,1318.79 942.545,1318.79C911.802,1318.79 898.714,1270.67 871.632,1276.02C814.892,1287.22 660.558,1356.88 616.422,1382.97C603.488,1390.62 611.556,1421.26 611.556,1440.32C611.556,1528.81 539.717,1600.65 451.232,1600.65C362.748,1600.65 290.909,1528.81 290.909,1440.32C290.909,1373.61 379.516,1339.2 389.766,1292.22C399.636,1246.99 358.977,1180.73 352.413,1158.44ZM544.204,1309.73C537.417,1335.46 570.752,1380.04 595.691,1370.75C647.932,1351.29 807.471,1279.21 854.002,1263.79C861.041,1261.45 873.23,1230 873.23,1222.36C873.23,1201.73 871.015,1191.04 864.877,1172.89C854.943,1143.52 832.752,1068.86 802.779,1062.38C778.069,1057.04 761.964,1050.97 736.995,1050.97C716.749,1050.97 699.594,1055.77 675.627,1067.68C631.043,1089.84 557.527,1259.22 544.204,1309.73Z"
                        style="fill:rgb(178,178,178);" />
                </g>
                <g
                    transform="matrix(1.31248,-6.93889e-18,-0.0058278,1.31271,-35.0723,-838.811)">
                    <path
                        d="M352.413,1158.44C352.222,1157.79 351.062,1158.46 350.384,1158.46C306.141,1158.46 270.222,1122.55 270.222,1078.3C270.222,1034.06 306.141,998.141 350.384,998.141C394.626,998.141 430.545,1034.06 430.545,1078.3C430.545,1110.17 386.169,1122.16 384.954,1150.64C383.5,1184.7 410.779,1261.13 421.825,1282.7C426.314,1291.46 449.865,1306.57 459.909,1306.57C478.602,1306.57 493.366,1303.24 504.562,1289.1C535.451,1250.09 625.203,1107.82 636.571,1045.97C645.187,999.083 572.768,970.239 572.768,917.98C572.768,829.495 644.606,757.657 733.091,757.657C821.576,757.657 893.414,829.495 893.414,917.98C893.414,963.532 838.327,993.52 843.828,1033.87C849.329,1074.22 909.97,1139.32 926.423,1160.09C929.777,1164.32 939.971,1160.07 949.831,1159.53C994.007,1157.1 1022.71,1194.38 1022.71,1238.63C1022.71,1264.05 988.818,1278.44 992.371,1301.41C997.757,1336.24 1036.61,1424.44 1055.03,1447.6C1065.07,1460.22 1086.21,1440.32 1102.87,1440.32C1145.05,1440.32 1182.99,1497.27 1212.08,1483.31C1237.17,1471.27 1269,1430.25 1284.01,1412.16C1284.23,1411.89 1285.87,1408.8 1286.07,1408.54C1286.83,1407.64 1286.63,1395.67 1286.45,1394.73C1285.74,1391.02 1283.57,1381.34 1282.6,1379.9C1257.83,1343.24 1274,1308.98 1310.66,1284.22C1347.32,1259.45 1397.19,1269.11 1421.95,1305.77C1446.72,1342.43 1437.06,1392.3 1400.4,1417.07C1371.85,1436.36 1332.96,1397.12 1308.81,1415.8C1285.26,1434.01 1245.46,1471.67 1227.88,1500.31C1211.28,1527.35 1263.19,1562.68 1263.19,1600.65C1263.19,1689.13 1191.35,1760.97 1102.87,1760.97C1032.43,1760.97 994.382,1666.46 951.041,1652.24C915.975,1640.73 886.847,1661.51 862.15,1666.75C854.9,1668.29 846.544,1680.85 846.544,1682.59C846.544,1726.83 807.071,1760.97 762.828,1760.97C718.586,1760.97 682.667,1725.05 682.667,1680.81C682.667,1636.57 718.586,1600.65 762.828,1600.65C797.285,1600.65 807.865,1648.15 838.017,1652.97C868.411,1657.83 905.116,1639.85 922.538,1631.13C931.263,1626.76 939.658,1611.71 942.545,1600.65C957.338,1543.96 1018.32,1510.05 1020.99,1462.81C1023.67,1415.56 969.583,1341.34 958.578,1317.18C958.07,1316.07 956.176,1317.64 954.961,1317.83C950.914,1318.46 946.768,1318.79 942.545,1318.79C911.802,1318.79 898.714,1270.67 871.632,1276.02C814.892,1287.22 660.558,1356.88 616.422,1382.97C603.488,1390.62 611.556,1421.26 611.556,1440.32C611.556,1528.81 539.717,1600.65 451.232,1600.65C362.748,1600.65 290.909,1528.81 290.909,1440.32C290.909,1373.61 379.516,1339.2 389.766,1292.22C399.636,1246.99 358.977,1180.73 352.413,1158.44ZM544.204,1309.73C537.417,1335.46 570.752,1380.04 595.691,1370.75C647.932,1351.29 807.471,1279.21 854.002,1263.79C861.041,1261.45 873.23,1230 873.23,1222.36C873.23,1201.73 871.015,1191.04 864.877,1172.89C854.943,1143.52 832.752,1068.86 802.779,1062.38C778.069,1057.04 761.964,1050.97 736.995,1050.97C716.749,1050.97 699.594,1055.77 675.627,1067.68C631.043,1089.84 557.527,1259.22 544.204,1309.73Z"
                        style="fill:rgb(205,205,205);" />
                </g>
                <g
                    transform="matrix(1.31243,-1.38778e-17,-0.00703624,1.31277,-25.0452,-851.667)">
                    <path
                        d="M352.413,1158.44C352.222,1157.79 351.062,1158.46 350.384,1158.46C306.141,1158.46 270.222,1122.55 270.222,1078.3C270.222,1034.06 306.141,998.141 350.384,998.141C394.626,998.141 430.545,1034.06 430.545,1078.3C430.545,1110.17 386.169,1122.16 384.954,1150.64C383.5,1184.7 410.779,1261.13 421.825,1282.7C426.314,1291.46 449.865,1306.57 459.909,1306.57C478.602,1306.57 493.366,1303.24 504.562,1289.1C535.451,1250.09 625.203,1107.82 636.571,1045.97C645.187,999.083 572.768,970.239 572.768,917.98C572.768,829.495 644.606,757.657 733.091,757.657C821.576,757.657 893.414,829.495 893.414,917.98C893.414,963.532 838.327,993.52 843.828,1033.87C849.329,1074.22 909.97,1139.32 926.423,1160.09C929.777,1164.32 939.971,1160.07 949.831,1159.53C994.007,1157.1 1022.71,1194.38 1022.71,1238.63C1022.71,1264.05 988.818,1278.44 992.371,1301.41C997.757,1336.24 1036.61,1424.44 1055.03,1447.6C1065.07,1460.22 1086.21,1440.32 1102.87,1440.32C1145.05,1440.32 1182.99,1497.27 1212.08,1483.31C1237.17,1471.27 1269,1430.25 1284.01,1412.16C1284.23,1411.89 1285.87,1408.8 1286.07,1408.54C1286.83,1407.64 1286.63,1395.67 1286.45,1394.73C1285.74,1391.02 1283.57,1381.34 1282.6,1379.9C1257.83,1343.24 1274,1308.98 1310.66,1284.22C1347.32,1259.45 1397.19,1269.11 1421.95,1305.77C1446.72,1342.43 1437.06,1392.3 1400.4,1417.07C1371.85,1436.36 1332.96,1397.12 1308.81,1415.8C1285.26,1434.01 1245.46,1471.67 1227.88,1500.31C1211.28,1527.35 1263.19,1562.68 1263.19,1600.65C1263.19,1689.13 1191.35,1760.97 1102.87,1760.97C1032.43,1760.97 994.382,1666.46 951.041,1652.24C915.975,1640.73 886.847,1661.51 862.15,1666.75C854.9,1668.29 846.544,1680.85 846.544,1682.59C846.544,1726.83 807.071,1760.97 762.828,1760.97C718.586,1760.97 682.667,1725.05 682.667,1680.81C682.667,1636.57 718.586,1600.65 762.828,1600.65C797.285,1600.65 807.865,1648.15 838.017,1652.97C868.411,1657.83 905.116,1639.85 922.538,1631.13C931.263,1626.76 939.658,1611.71 942.545,1600.65C957.338,1543.96 1018.32,1510.05 1020.99,1462.81C1023.67,1415.56 969.583,1341.34 958.578,1317.18C958.07,1316.07 956.176,1317.64 954.961,1317.83C950.914,1318.46 946.768,1318.79 942.545,1318.79C911.802,1318.79 898.714,1270.67 871.632,1276.02C814.892,1287.22 660.558,1356.88 616.422,1382.97C603.488,1390.62 611.556,1421.26 611.556,1440.32C611.556,1528.81 539.717,1600.65 451.232,1600.65C362.748,1600.65 290.909,1528.81 290.909,1440.32C290.909,1373.61 379.516,1339.2 389.766,1292.22C399.636,1246.99 358.977,1180.73 352.413,1158.44ZM544.204,1309.73C537.417,1335.46 570.752,1380.04 595.691,1370.75C647.932,1351.29 807.471,1279.21 854.002,1263.79C861.041,1261.45 873.23,1230 873.23,1222.36C873.23,1201.73 871.015,1191.04 864.877,1172.89C854.943,1143.52 832.752,1068.86 802.779,1062.38C778.069,1057.04 761.964,1050.97 736.995,1050.97C716.749,1050.97 699.594,1055.77 675.627,1067.68C631.043,1089.84 557.527,1259.22 544.204,1309.73Z"
                        style="fill:rgb(250,250,250);" />
                </g>
            </g>
        </g>
    </g>
</svg>