<?xml version="1.0" encoding="UTF-8" standalone="no"?><!DOCTYPE svg PUBLIC "-//W3C//DTD SVG 1.1//EN" "http://www.w3.org/Graphics/SVG/1.1/DTD/svg11.dtd"><svg width="100%" height="100%" viewBox="0 0 134 134" version="1.1" xmlns="http://www.w3.org/2000/svg" xmlns:xlink="http://www.w3.org/1999/xlink" xml:space="preserve" xmlns:serif="http://www.serif.com/" style="fill-rule:evenodd;clip-rule:evenodd;stroke-linecap:round;stroke-linejoin:round;"><rect id="Artboard1" x="0" y="0" width="133.333" height="133.333" style="fill:none;"/><path d="M112.5,47.284c4.912,1.58 8.333,6.267 8.333,11.65l0,23.809c0,6.315 -4.707,11.67 -11.001,12.183c-1.883,0.154 -3.771,0.288 -5.665,0.403l-0,17.171l-16.667,-16.667c-7.521,0 -14.969,-0.306 -22.332,-0.907c-1.657,-0.135 -3.205,-0.607 -4.585,-1.342m51.917,-46.3c-0.841,-0.271 -1.726,-0.451 -2.645,-0.527c-7.371,-0.612 -14.827,-0.924 -22.355,-0.924c-7.529,0 -14.984,0.312 -22.355,0.924c-6.284,0.522 -10.978,5.872 -10.978,12.177l-0,23.809c-0,4.651 2.555,8.783 6.416,10.841m51.917,-46.3l0,-10.41c0,-9.008 -6.398,-16.815 -15.332,-17.975c-11.347,-1.473 -22.918,-2.232 -34.666,-2.232c-11.75,-0 -23.322,0.76 -34.671,2.233c-8.932,1.16 -15.331,8.967 -15.331,17.974l0,34.585c0,9.008 6.399,16.815 15.331,17.974c3.206,0.416 6.429,0.776 9.669,1.077l0,26.157l23.083,-23.083" style="fill:none;fill-rule:nonzero;stroke:#0f172a;stroke-width:8.33px;"/><path d="M112.5,47.284c4.912,1.58 8.333,6.267 8.333,11.65l0,23.809c0,6.315 -4.707,11.67 -11.001,12.183c-1.883,0.154 -3.771,0.288 -5.665,0.403l-0,17.171l-16.667,-16.667c-7.521,0 -14.969,-0.306 -22.332,-0.907c-1.657,-0.135 -3.205,-0.607 -4.585,-1.342m51.917,-46.3c-0.841,-0.271 -1.726,-0.451 -2.645,-0.527c-7.371,-0.612 -14.827,-0.924 -22.355,-0.924c-7.529,0 -14.984,0.312 -22.355,0.924c-6.284,0.522 -10.978,5.872 -10.978,12.177l-0,23.809c-0,4.651 2.555,8.783 6.416,10.841m51.917,-46.3l0,-10.41c0,-9.008 -6.398,-16.815 -15.332,-17.975c-11.347,-1.473 -22.918,-2.232 -34.666,-2.232c-11.75,-0 -23.322,0.76 -34.671,2.233c-8.932,1.16 -15.331,8.967 -15.331,17.974l0,34.585c0,9.008 6.399,16.815 15.331,17.974c3.206,0.416 6.429,0.776 9.669,1.077l0,26.157l23.083,-23.083" style="fill:none;fill-rule:nonzero;stroke:#86ba81;stroke-width:8.33px;"/></svg>