<?xml version="1.0" encoding="UTF-8" standalone="no"?><!DOCTYPE svg PUBLIC "-//W3C//DTD SVG 1.1//EN" "http://www.w3.org/Graphics/SVG/1.1/DTD/svg11.dtd"><svg width="100%" height="100%" viewBox="0 0 134 134" version="1.1" xmlns="http://www.w3.org/2000/svg" xmlns:xlink="http://www.w3.org/1999/xlink" xml:space="preserve" xmlns:serif="http://www.serif.com/" style="fill-rule:evenodd;clip-rule:evenodd;stroke-linecap:round;stroke-linejoin:round;"><rect id="Artboard1" x="0" y="0" width="133.333" height="133.333" style="fill:none;"/><path d="M40.096,60.595c-2.135,-3.834 -6.229,-6.428 -10.929,-6.428c-6.904,-0 -12.5,5.596 -12.5,12.5c-0,6.903 5.596,12.5 12.5,12.5c4.7,-0 8.794,-2.594 10.929,-6.429m-0,-12.143c1,1.798 1.571,3.868 1.571,6.072c-0,2.203 -0.571,4.274 -1.571,6.071m-0,-12.143l53.142,-29.523m-53.142,41.666l53.142,29.524m-0,-0c-1.001,1.797 -1.571,3.868 -1.571,6.071c-0,6.904 5.596,12.5 12.5,12.5c6.903,0 12.5,-5.596 12.5,-12.5c-0,-6.903 -5.597,-12.5 -12.5,-12.5c-4.7,0 -8.794,2.594 -10.929,6.429Zm-0,-71.19c2.135,3.834 6.229,6.428 10.929,6.428c6.903,-0 12.5,-5.596 12.5,-12.5c-0,-6.904 -5.597,-12.5 -12.5,-12.5c-6.904,-0 -12.5,5.596 -12.5,12.5c-0,2.204 0.57,4.274 1.571,6.072Z" style="fill:none;fill-rule:nonzero;stroke:#86ba81;stroke-width:8.33px;"/></svg>