<?xml version="1.0" encoding="UTF-8" standalone="no"?><!DOCTYPE svg PUBLIC "-//W3C//DTD SVG 1.1//EN" "http://www.w3.org/Graphics/SVG/1.1/DTD/svg11.dtd"><svg width="100%" height="100%" viewBox="0 0 134 134" version="1.1" xmlns="http://www.w3.org/2000/svg" xmlns:xlink="http://www.w3.org/1999/xlink" xml:space="preserve" xmlns:serif="http://www.serif.com/" style="fill-rule:evenodd;clip-rule:evenodd;stroke-linecap:round;stroke-linejoin:round;"><rect id="Artboard1" x="-0" y="0" width="133.333" height="133.333" style="fill:none;"/><clipPath id="_clip1"><rect x="-0" y="0" width="133.333" height="133.333"/></clipPath><g clip-path="url(#_clip1)"><path d="M-7592.32,1710.44c-3.522,-2.812 -7.762,5.507 -11.707,8.203c-257.277,175.814 -599.603,120.864 -763.975,-122.631c-164.371,-243.496 -88.944,-583.921 168.334,-759.734c257.277,-175.813 599.603,-120.864 763.974,122.632c118.392,175.382 -95.113,417.73 3.615,579.275c118.11,193.261 560.708,505.522 705.048,580.287c58.648,30.379 251.764,19.981 310.17,-19.931c108.701,-74.283 182.158,-151.322 194.74,-273.618c34.714,-337.424 28.06,-1477.1 -135.635,-1862.69c-124.08,-292.278 -652.377,-163.242 -846.531,-450.857c-328.743,-486.991 -177.888,-1167.84 336.667,-1519.47c514.555,-351.626 1199.21,-241.728 1527.95,245.263c169.238,250.704 -39.694,634.657 142.214,834.877c181.908,200.22 776.41,317.537 949.235,366.442c35.236,9.971 78.725,-53.929 134.048,-96.096c247.863,-188.92 553.275,-97.78 717.646,145.716c94.438,139.897 -49.158,353.78 56.835,466.077c160.72,170.276 714.37,501.341 907.482,555.582c105.293,29.574 154.31,-163.932 251.192,-230.138c245.263,-167.602 677.448,-4.989 794.761,-197.382c101.217,-165.995 133.91,-518.225 153.976,-677.471c0.29,-2.307 -1.717,-25.866 -1.431,-28.082c1.034,-7.991 -44.615,-73.059 -49.136,-77.5c-17.927,-17.615 -66.521,-62.286 -77.527,-66.345c-280.222,-103.357 -313.474,-356.113 -192.292,-638.101c121.183,-281.989 447.073,-427.014 727.295,-323.657c280.222,103.358 409.342,416.21 288.159,698.198c-94.378,219.616 -466.299,158.199 -537.356,356.991c-69.274,193.804 -160.807,559.22 -156.641,786.703c3.934,214.807 437.096,202.968 578.141,411.91c328.744,486.99 177.888,1167.84 -336.666,1519.47c-409.616,279.915 -981.996,-89.032 -1286.87,4.922c-246.664,76.016 -338.866,306.108 -463.001,433.111c-36.442,37.284 -38.38,139.601 -31.924,149.164c164.371,243.495 61.675,588.264 -195.603,764.077c-257.277,175.813 -599.603,120.864 -763.974,-122.632c-164.372,-243.495 -88.944,-583.921 168.333,-759.734c200.371,-136.925 438.388,82.479 631.631,-10.813c194.799,-94.042 341.455,-338.848 410.365,-456.074c34.511,-58.71 27.407,-174.913 3.091,-247.284c-124.568,-370.749 104.061,-799.727 -55.925,-1070.36c-159.985,-270.634 -750.22,-464.194 -903.989,-553.444c-7.093,-4.117 -12.259,12.075 -18.62,17.944c-21.191,19.55 -44.088,37.828 -68.641,54.607c-178.778,122.169 -433.667,-90.656 -571.288,46.394c-288.33,287.135 -927.011,1283.81 -1086.72,1602.81c-46.803,93.479 113.962,230.082 184.782,334.993c328.744,486.99 177.888,1167.84 -336.667,1519.47c-514.555,351.627 -1199.21,241.728 -1527.95,-245.263c-247.861,-367.174 139.582,-908.635 24.646,-1207.93c-110.667,-288.187 -593.264,-491.257 -714.258,-587.868Zm1677.38,70.5c56.136,168.598 415.593,281.462 526.108,131.232c231.496,-314.685 891.448,-1345.38 1104.72,-1615.19c32.263,-40.817 -13.715,-262.358 -42.102,-304.409c-76.619,-113.502 -129.22,-163.546 -232.338,-239.038c-166.9,-122.187 -573.319,-444.895 -771.689,-361.445c-163.539,68.796 -279.747,99.388 -424.941,198.608c-117.739,80.458 -199.677,175.02 -294.793,335.833c-176.928,299.134 24.842,1523.47 135.032,1854.41Z" style="fill:#fafafa;"/><g><path d="M54.518,88.354l-4.518,15.813l-4.518,-15.813c-2.373,-8.305 -8.865,-14.797 -17.17,-17.17l-15.812,-4.517l15.812,-4.518c8.305,-2.373 14.797,-8.865 17.17,-17.17l4.518,-15.812l4.518,15.812c2.373,8.305 8.865,14.797 17.17,17.17l15.812,4.518l-15.812,4.517c-8.305,2.373 -14.797,8.865 -17.17,17.17Z" style="fill:none;fill-rule:nonzero;stroke:#fafafa;stroke-width:8.33px;"/><path d="M101.438,48.414l-1.438,5.753l-1.438,-5.753c-1.68,-6.718 -6.925,-11.963 -13.643,-13.643l-5.752,-1.438l5.752,-1.438c6.718,-1.679 11.963,-6.925 13.643,-13.642l1.438,-5.753l1.438,5.753c1.68,6.717 6.925,11.963 13.643,13.642l5.752,1.438l-5.752,1.438c-6.718,1.68 -11.963,6.925 -13.643,13.643Z" style="fill:none;fill-rule:nonzero;stroke:#fafafa;stroke-width:8.33px;"/><path d="M93.857,114.263l-2.19,6.57l-2.19,-6.57c-1.245,-3.733 -4.174,-6.662 -7.906,-7.906l-6.571,-2.19l6.571,-2.19c3.732,-1.245 6.661,-4.174 7.906,-7.906l2.19,-6.571l2.19,6.571c1.244,3.732 4.173,6.661 7.906,7.906l6.57,2.19l-6.57,2.19c-3.733,1.244 -6.662,4.173 -7.906,7.906Z" style="fill:none;fill-rule:nonzero;stroke:#fafafa;stroke-width:8.33px;"/></g></g></svg>