<?xml version="1.0" encoding="UTF-8" standalone="no"?><!DOCTYPE svg PUBLIC "-//W3C//DTD SVG 1.1//EN" "http://www.w3.org/Graphics/SVG/1.1/DTD/svg11.dtd"><svg width="100%" height="100%" viewBox="0 0 134 134" version="1.1" xmlns="http://www.w3.org/2000/svg" xmlns:xlink="http://www.w3.org/1999/xlink" xml:space="preserve" xmlns:serif="http://www.serif.com/" style="fill-rule:evenodd;clip-rule:evenodd;stroke-linecap:round;stroke-linejoin:round;"><rect id="Artboard1" x="-0" y="0" width="133.333" height="133.333" style="fill:none;"/><path d="M99.996,103.995c1.375,0.114 2.766,0.172 4.17,0.172c5.824,-0 11.416,-0.996 16.614,-2.826c0.035,-0.443 0.053,-0.89 0.053,-1.341c-0,-9.205 -7.462,-16.667 -16.667,-16.667c-3.486,0 -6.724,1.071 -9.399,2.901m5.229,17.761c0,0.057 0,0.114 0,0.172c0,1.25 -0.069,2.484 -0.202,3.697c-9.76,5.601 -21.072,8.803 -33.131,8.803c-12.059,-0 -23.371,-3.202 -33.131,-8.803c-0.134,-1.213 -0.202,-2.447 -0.202,-3.697c-0,-0.058 -0,-0.114 0,-0.171m66.666,-0.001c-0.033,-6.536 -1.947,-12.628 -5.229,-17.761m-0,0c-5.922,-9.261 -16.296,-15.401 -28.104,-15.401c-11.807,0 -22.18,6.139 -28.102,15.398m0,0c-2.675,-1.828 -5.909,-2.898 -9.394,-2.898c-9.205,0 -16.667,7.462 -16.667,16.667c0,0.451 0.018,0.898 0.053,1.341c5.198,1.83 10.79,2.826 16.614,2.826c1.402,-0 2.79,-0.058 4.163,-0.171m5.231,-17.765c-3.283,5.134 -5.198,11.227 -5.231,17.765m50,-66.496c-0,9.205 -7.462,16.667 -16.667,16.667c-9.205,-0 -16.667,-7.462 -16.667,-16.667c0,-9.205 7.462,-16.667 16.667,-16.667c9.205,0 16.667,7.462 16.667,16.667Zm33.333,16.667c-0,6.903 -5.597,12.5 -12.5,12.5c-6.903,-0 -12.5,-5.597 -12.5,-12.5c-0,-6.904 5.597,-12.5 12.5,-12.5c6.903,-0 12.5,5.596 12.5,12.5Zm-75,-0c-0,6.903 -5.596,12.5 -12.5,12.5c-6.904,-0 -12.5,-5.597 -12.5,-12.5c-0,-6.904 5.596,-12.5 12.5,-12.5c6.904,-0 12.5,5.596 12.5,12.5Z" style="fill:none;fill-rule:nonzero;stroke:#fafafa;stroke-width:8.33px;"/></svg>