<?xml version="1.0" encoding="UTF-8" standalone="no"?><!DOCTYPE svg PUBLIC "-//W3C//DTD SVG 1.1//EN" "http://www.w3.org/Graphics/SVG/1.1/DTD/svg11.dtd"><svg width="100%" height="100%" viewBox="0 0 2560 1440" version="1.1" xmlns="http://www.w3.org/2000/svg" xmlns:xlink="http://www.w3.org/1999/xlink" xml:space="preserve" xmlns:serif="http://www.serif.com/" style="fill-rule:evenodd;clip-rule:evenodd;stroke-linejoin:round;stroke-miterlimit:2;"><rect id="Landing-Page---Light" serif:id="Landing Page - Light" x="0" y="0" width="2560" height="1440" style="fill:none;"/><clipPath id="_clip1"><rect x="0" y="0" width="2560" height="1440"/></clipPath><g clip-path="url(#_clip1)"><g id="Graph"><path d="M1366.16,990.673c-0.638,-0.503 -1.397,0.991 -2.108,1.477c-46.316,31.65 -108.137,21.905 -137.969,-21.749c-29.831,-43.654 -16.448,-104.791 29.868,-136.442c46.316,-31.65 108.138,-21.905 137.969,21.749c21.487,31.443 -16.884,75.022 1.044,103.987c21.448,34.652 101.542,90.554 127.644,103.925c10.605,5.433 45.453,3.5 55.967,-3.686c19.569,-13.372 32.775,-27.227 34.963,-49.186c6.037,-60.584 4.066,-265.171 -25.74,-334.333c-22.592,-52.425 -117.855,-29.078 -153.091,-80.642c-59.663,-87.307 -32.896,-209.582 59.736,-272.883c92.632,-63.301 216.275,-43.811 275.938,43.497c30.715,44.946 -6.735,113.944 26.232,149.823c32.967,35.879 140.346,56.733 171.571,65.452c6.366,1.778 14.172,-9.708 24.129,-17.297c44.608,-34 99.792,-17.745 129.623,25.909c17.139,25.08 -8.633,63.526 10.573,83.648c29.123,30.511 129.272,89.749 164.163,99.419c19.024,5.273 27.74,-29.482 45.181,-41.4c44.153,-30.172 122.266,-1.131 143.309,-35.709c18.156,-29.834 23.818,-93.076 27.332,-121.67c0.051,-0.414 -0.327,-4.643 -0.277,-5.04c0.181,-1.435 -8.102,-13.1 -8.921,-13.896c-3.247,-3.156 -12.048,-11.158 -14.037,-11.883c-50.646,-18.456 -56.819,-63.818 -35.138,-114.481c21.681,-50.664 80.402,-76.811 131.048,-58.354c50.645,18.457 74.161,74.573 52.48,125.236c-16.885,39.458 -84.053,28.561 -96.743,64.272c-12.372,34.815 -28.645,100.444 -27.74,141.279c0.856,38.56 79.027,36.284 104.625,73.743c59.663,87.308 32.896,209.583 -59.736,272.884c-73.74,50.391 -177.296,-15.641 -232.257,1.331c-44.468,13.732 -60.954,55.068 -83.272,77.91c-6.552,6.706 -6.833,25.074 -5.661,26.789c29.831,43.654 11.529,105.58 -34.787,137.231c-46.316,31.65 -108.138,21.905 -137.969,-21.749c-29.831,-43.654 -16.448,-104.791 29.868,-136.442c36.071,-24.65 79.178,14.654 113.993,-2.16c35.094,-16.95 61.398,-60.947 73.756,-82.015c6.189,-10.551 4.828,-31.409 0.391,-44.392c-22.734,-66.512 18.24,-143.599 -10.818,-192.127c-29.058,-48.527 -135.717,-83.068 -163.531,-99.037c-1.283,-0.736 -2.204,2.172 -3.348,3.228c-3.812,3.517 -7.932,6.806 -12.352,9.827c-32.184,21.993 -78.332,-16.124 -103.078,8.526c-51.845,51.646 -166.444,230.786 -195.054,288.106c-8.384,16.797 20.724,41.264 33.577,60.072c59.663,87.308 32.896,209.583 -59.736,272.884c-92.632,63.301 -216.275,43.81 -275.938,-43.497c-44.984,-65.828 24.578,-163.162 3.632,-216.851c-20.169,-51.695 -107.408,-87.982 -129.311,-105.283Zm302.79,12.073c10.246,30.246 75.199,50.382 95.044,23.375c41.569,-56.571 159.984,-241.825 198.294,-290.334c5.796,-7.339 -2.653,-47.093 -7.805,-54.632c-13.905,-20.348 -23.433,-29.314 -42.095,-42.83c-30.205,-21.876 -103.776,-79.666 -139.523,-64.616c-29.47,12.407 -50.423,17.939 -76.561,35.801c-21.196,14.484 -35.921,31.488 -52.979,60.389c-31.731,53.76 5.514,273.477 25.625,332.847Z" style="fill:#5f7f5c;"/><path d="M1367.65,975.915c-0.635,-0.506 -1.397,0.991 -2.108,1.476c-46.313,31.649 -107.993,21.804 -137.653,-21.971c-29.66,-43.775 -16.14,-105.009 30.173,-136.658c46.313,-31.648 107.993,-21.803 137.653,21.972c21.364,31.529 -17.051,75.14 0.767,104.183c21.317,34.745 101.113,90.857 127.13,104.288c10.572,5.457 45.359,3.566 55.873,-3.619c19.568,-13.372 32.785,-27.236 35.027,-49.232c6.187,-60.69 4.76,-265.661 -24.807,-334.993c-22.411,-52.553 -117.558,-29.287 -152.592,-80.994c-59.32,-87.55 -32.28,-210.018 60.346,-273.315c92.626,-63.297 215.987,-43.607 275.307,43.943c30.538,45.071 -7.024,114.148 25.787,150.138c32.811,35.99 139.933,57.024 171.077,65.801c6.35,1.789 14.171,-9.708 24.129,-17.298c44.615,-34.005 99.653,-17.646 129.313,26.128c17.04,25.151 -8.785,63.634 10.332,83.819c28.987,30.606 128.793,90.088 163.593,99.822c18.974,5.308 27.766,-29.5 45.206,-41.418c44.15,-30.171 122.04,-0.972 143.135,-35.587c18.201,-29.865 24.02,-93.218 27.603,-121.861c0.052,-0.415 -0.314,-4.652 -0.263,-5.05c0.184,-1.437 -8.052,-13.135 -8.868,-13.933c-3.233,-3.166 -11.996,-11.195 -13.979,-11.924c-50.503,-18.558 -56.544,-64.013 -34.769,-114.742c21.774,-50.729 80.454,-76.848 130.956,-58.29c50.503,18.558 73.826,74.811 52.052,125.54c-16.958,39.509 -83.972,28.504 -96.733,64.264c-12.441,34.864 -28.857,100.595 -28.061,141.507c0.752,38.633 78.783,36.456 104.234,74.019c59.32,87.55 32.28,210.018 -60.346,273.315c-73.736,50.388 -176.923,-15.905 -231.827,1.027c-44.421,13.698 -60.985,55.091 -83.322,77.946c-6.557,6.71 -6.886,25.112 -5.721,26.831c29.66,43.775 11.228,105.793 -35.085,137.441c-46.313,31.649 -107.993,21.804 -137.653,-21.971c-29.66,-43.775 -16.14,-105.009 30.173,-136.658c36.069,-24.648 78.991,14.786 113.785,-2.014c35.074,-16.935 61.445,-60.979 73.835,-82.07c6.206,-10.563 4.903,-31.462 0.508,-44.475c-22.515,-66.666 18.586,-143.843 -10.289,-192.5c-28.876,-48.656 -135.245,-83.403 -162.964,-99.438c-1.278,-0.74 -2.206,2.173 -3.351,3.229c-3.813,3.519 -7.934,6.809 -12.354,9.829c-32.182,21.992 -78.143,-16.257 -102.908,8.407c-51.885,51.673 -166.743,230.997 -195.451,288.387c-8.413,16.817 20.576,41.368 33.355,60.228c59.321,87.55 32.281,210.018 -60.346,273.315c-92.626,63.297 -215.987,43.607 -275.307,-43.943c-44.725,-66.009 24.964,-163.434 4.198,-217.251c-19.994,-51.819 -106.974,-88.288 -128.79,-105.65Zm302.192,12.495c10.147,30.316 74.925,50.575 94.804,23.544c41.641,-56.622 160.324,-242.066 198.691,-290.615c5.805,-7.345 -2.523,-47.184 -7.645,-54.744c-13.826,-20.405 -23.312,-29.4 -41.903,-42.966c-30.092,-21.957 -103.372,-79.952 -139.092,-64.921c-29.447,12.391 -50.376,17.906 -76.512,35.766c-21.195,14.484 -35.937,31.5 -53.04,60.433c-31.813,53.819 4.78,273.995 24.697,333.503Z" style="fill:#569950;"/><path d="M1365.93,962.057c-0.635,-0.505 -1.397,0.992 -2.108,1.477c-46.311,31.648 -107.965,21.783 -137.593,-22.015c-29.629,-43.799 -16.084,-105.051 30.228,-136.699c46.312,-31.647 107.965,-21.783 137.594,22.016c21.34,31.546 -17.081,75.162 0.716,104.22c21.292,34.763 101.032,90.916 127.034,104.358c10.565,5.462 45.341,3.579 55.855,-3.605c19.567,-13.371 32.786,-27.237 35.038,-49.24c6.214,-60.71 4.887,-265.755 -24.636,-335.119c-22.378,-52.578 -117.501,-29.329 -152.498,-81.063c-59.257,-87.597 -32.167,-210.102 60.457,-273.397c92.623,-63.295 215.931,-43.566 275.187,44.031c30.506,45.095 -7.076,114.187 25.705,150.198c32.782,36.011 139.856,57.081 170.984,65.869c6.347,1.792 14.171,-9.708 24.13,-17.298c44.614,-34.005 99.625,-17.626 129.253,26.172c17.023,25.164 -8.813,63.654 10.288,83.851c28.962,30.625 128.703,90.154 163.486,99.901c18.965,5.314 27.77,-29.504 45.21,-41.421c44.149,-30.17 121.997,-0.941 143.102,-35.562c18.208,-29.872 24.056,-93.246 27.652,-121.898c0.052,-0.415 -0.312,-4.653 -0.261,-5.052c0.185,-1.438 -8.043,-13.141 -8.858,-13.94c-3.23,-3.168 -11.986,-11.202 -13.968,-11.932c-50.476,-18.578 -56.493,-64.05 -34.701,-114.792c21.791,-50.742 80.462,-76.855 130.938,-58.277c50.475,18.578 73.763,74.857 51.972,125.599c-16.972,39.518 -83.956,28.492 -96.73,64.262c-12.453,34.873 -28.895,100.622 -28.119,141.55c0.732,38.647 78.737,36.489 104.161,74.072c59.256,87.597 32.167,210.102 -60.457,273.397c-73.734,50.387 -176.852,-15.957 -231.745,0.966c-44.411,13.692 -60.989,55.095 -83.33,77.953c-6.558,6.71 -6.896,25.119 -5.732,26.839c29.628,43.798 11.173,105.834 -35.139,137.481c-46.311,31.648 -107.965,21.783 -137.594,-22.015c-29.628,-43.798 -16.083,-105.051 30.229,-136.699c36.068,-24.647 78.956,14.812 113.746,-1.985c35.069,-16.932 61.452,-60.985 73.848,-82.08c6.209,-10.565 4.916,-31.471 0.529,-44.491c-22.475,-66.695 18.649,-143.889 -10.192,-192.571c-28.842,-48.681 -135.156,-83.468 -162.857,-99.516c-1.278,-0.74 -2.207,2.173 -3.351,3.229c-3.814,3.519 -7.936,6.809 -12.355,9.829c-32.182,21.992 -78.107,-16.283 -102.875,8.383c-51.892,51.678 -166.796,231.036 -195.522,288.439c-8.417,16.821 20.549,41.388 33.315,60.259c59.257,87.596 32.167,210.101 -60.457,273.397c-92.623,63.295 -215.931,43.565 -275.188,-44.031c-44.677,-66.045 25.034,-163.486 4.302,-217.328c-19.962,-51.842 -106.893,-88.347 -128.693,-105.722Zm302.078,12.579c10.129,30.33 74.874,50.613 94.759,23.578c41.654,-56.631 160.384,-242.111 198.761,-290.668c5.806,-7.345 -2.499,-47.201 -7.616,-54.765c-13.811,-20.416 -23.289,-29.416 -41.868,-42.992c-30.069,-21.973 -103.296,-80.007 -139.01,-64.981c-29.443,12.388 -50.367,17.899 -76.503,35.759c-21.193,14.483 -35.939,31.502 -53.049,60.44c-31.829,53.83 4.646,274.095 24.526,333.629Z" style="fill:#62af5b;"/><path d="M1365.87,947.23c-0.634,-0.506 -1.397,0.992 -2.107,1.477c-46.31,31.646 -107.928,21.755 -137.515,-22.074c-29.587,-43.829 -16.01,-105.106 30.3,-136.752c46.31,-31.646 107.928,-21.755 137.515,22.074c21.311,31.569 -17.12,75.191 0.651,104.269c21.26,34.787 100.927,90.994 126.908,104.452c10.557,5.468 45.318,3.597 55.831,-3.588c19.566,-13.37 32.789,-27.238 35.053,-49.251c6.249,-60.736 5.051,-265.878 -24.414,-335.284c-22.334,-52.611 -117.428,-29.384 -152.376,-81.155c-59.173,-87.658 -32.019,-210.211 60.6,-273.504c92.62,-63.293 215.857,-43.511 275.031,44.147c30.463,45.127 -7.145,114.239 25.599,150.278c32.743,36.04 139.754,57.157 170.862,65.96c6.343,1.794 14.171,-9.707 24.129,-17.298c44.615,-34.005 99.589,-17.6 129.176,26.229c16.999,25.182 -8.848,63.681 10.23,83.894c28.93,30.65 128.587,90.242 163.347,100.005c18.953,5.323 27.776,-29.508 45.215,-41.425c44.147,-30.168 121.94,-0.898 143.057,-35.529c18.219,-29.879 24.103,-93.28 27.715,-121.944c0.053,-0.416 -0.309,-4.656 -0.257,-5.055c0.186,-1.439 -8.031,-13.151 -8.845,-13.95c-3.227,-3.171 -11.974,-11.212 -13.955,-11.942c-50.44,-18.605 -56.425,-64.101 -34.612,-114.859c21.813,-50.757 80.473,-76.862 130.913,-58.258c50.44,18.605 73.681,74.918 51.869,125.676c-16.989,39.531 -83.934,28.476 -96.725,64.258c-12.469,34.885 -28.945,100.66 -28.195,141.607c0.708,38.665 78.677,36.534 104.066,74.144c59.173,87.658 32.019,210.211 -60.601,273.504c-73.73,50.384 -176.759,-16.026 -231.636,0.886c-44.399,13.683 -60.996,55.099 -83.34,77.96c-6.559,6.711 -6.908,25.128 -5.746,26.849c29.587,43.829 11.101,105.888 -35.209,137.534c-46.31,31.646 -107.928,21.755 -137.515,-22.074c-29.587,-43.829 -16.01,-105.105 30.3,-136.752c36.067,-24.646 78.91,14.846 113.694,-1.946c35.063,-16.928 61.461,-60.993 73.865,-82.094c6.212,-10.567 4.934,-31.484 0.557,-44.511c-22.423,-66.735 18.731,-143.951 -10.067,-192.665c-28.797,-48.714 -135.04,-83.555 -162.718,-99.62c-1.277,-0.741 -2.207,2.174 -3.352,3.23c-3.814,3.519 -7.935,6.809 -12.355,9.829c-32.18,21.991 -78.06,-16.318 -102.832,8.351c-51.899,51.685 -166.862,231.087 -195.61,288.506c-8.425,16.827 20.513,41.415 33.261,60.299c59.173,87.658 32.019,210.211 -60.601,273.504c-92.619,63.293 -215.857,43.511 -275.03,-44.147c-44.615,-66.092 25.124,-163.554 4.436,-217.429c-19.92,-51.873 -106.788,-88.426 -128.567,-105.816Zm301.929,12.69c10.105,30.348 74.807,50.663 94.7,23.622c41.669,-56.643 160.46,-242.169 198.85,-290.735c5.807,-7.347 -2.469,-47.224 -7.578,-54.793c-13.792,-20.43 -23.26,-29.438 -41.821,-43.027c-30.042,-21.994 -103.198,-80.081 -138.904,-65.06c-29.437,12.383 -50.355,17.89 -76.49,35.749c-21.193,14.483 -35.942,31.504 -53.062,60.45c-31.847,53.844 4.471,274.225 24.305,333.794Z" style="fill:#86ba81;"/></g><g id="slogan"><path d="M165.836,1070.38c9.1,0 15.2,-3.65 15.2,-11.4c0,-7.75 -5.45,-10.1 -12.55,-11.35c-5.2,-0.9 -8.25,-1.35 -8.25,-4.6c0,-2.4 2.1,-3.85 5.55,-3.85c3.9,0 6.1,1.7 6.2,4.7l8.25,0c-0.1,-6.9 -5.2,-10.9 -14.45,-10.9c-8.55,0 -14.25,3.75 -14.25,11.05c0,6.3 4.5,9.15 11.9,10.6c5.15,1 8.9,1.45 8.9,5.05c0,2.8 -2.15,4.35 -6.3,4.35c-4.25,0 -6.9,-1.7 -7,-5.5l-8.3,0c0,7.05 5.2,11.85 15.1,11.85Z" style="fill:#5d8559;fill-rule:nonzero;"/><path d="M186.636,1069.88l7.7,0l0,-14.9c0,-3.8 1.75,-6.25 5.25,-6.25c2.9,0 4.8,1.35 4.8,5.65l0,15.5l7.65,0l0,-16.45c0,-7.6 -3.55,-10.9 -9.3,-10.9c-3.85,0 -6.8,1.95 -7.95,4.9l-0.45,0l0,-14l-7.7,0l0,36.45Z" style="fill:#5d8559;fill-rule:nonzero;"/><path d="M227.286,1070.38c3.5,0 6.55,-1.65 7.9,-4.45l0.35,0l0,3.95l7.65,0l0,-26.85l-7.25,0l-0.4,3.95l-0.35,0c-1.35,-2.8 -4.35,-4.45 -7.85,-4.45c-6.35,0 -10.3,4 -10.3,13.4l0,1.15c0,8.1 3.1,13.3 10.25,13.3Zm3.1,-6.25c-3.25,0 -5.15,-1.95 -5.15,-5.35l0,-4.6c0,-3.4 1.9,-5.4 5.15,-5.4c3.1,0 5.15,2.05 5.15,5.5l0,4.4c0,3.45 -2.05,5.45 -5.15,5.45Z" style="fill:#5d8559;fill-rule:nonzero;"/><path d="M250.236,1069.88l7.7,0l0,-20.65l9.2,0l0,-6.2l-10.95,0c-3.55,0 -5.95,2.3 -5.95,5.95l0,20.9Z" style="fill:#5d8559;fill-rule:nonzero;"/><path d="M283.186,1070.38c6.8,0 11.65,-3.7 11.95,-9.15l-7.25,0c-0.35,2 -2.2,3.3 -4.95,3.3c-3.1,0 -5.25,-1.85 -5.25,-4.75l0,-1.4l17.75,0l0,-3.4c0,-7.45 -4.65,-12.45 -12.85,-12.45c-7.55,0 -12.7,4.85 -12.7,13.55l0,0.45c0,8.3 4.35,13.85 13.3,13.85Zm-5.5,-17c0,-3.3 1.95,-5.15 5.15,-5.15c3,0 5.05,1.55 5.05,5.15l0,0.25l-10.2,0l0,-0.25Z" style="fill:#5d8559;fill-rule:nonzero;"/><path d="M321.786,1070.38c7.5,0 11.8,-3.3 11.8,-8.6c0,-6.8 -5.1,-7.95 -10.15,-8.6c-3,-0.45 -5.2,-0.8 -5.2,-2.95c0,-1.55 1.2,-2.55 3.55,-2.55c2.4,0 3.95,1.15 3.95,3.2l7.25,0.05c-0.15,-5.35 -4.6,-8.4 -11.2,-8.4c-6.5,0 -11.1,3.1 -11.1,8.65c0,5.75 5.1,7.25 9.95,7.95c3.55,0.55 5.15,0.95 5.15,3.3c0,1.5 -1.1,2.65 -3.75,2.65c-2.65,0 -4.55,-1.05 -4.65,-3.7l-7.35,0c-0.05,5.35 4.1,9 11.75,9Z" style="fill:#5d8559;fill-rule:nonzero;"/><path d="M350.386,1070.38c8.8,0 13,-5.4 13.05,-13.75l0,-0.15c0,-9.45 -5.2,-13.95 -13.05,-13.95c-7.8,0 -12.95,4.5 -12.95,13.95l0,0.15c0,8.35 4.2,13.75 12.95,13.75Zm0,-6.2c-3.35,0 -5.15,-1.95 -5.15,-5.25l0,-4.8c0,-3.3 1.95,-5.35 5.15,-5.35c3.25,0 5.2,2.05 5.2,5.35l0,4.8c0,3.3 -1.8,5.25 -5.2,5.25Z" style="fill:#5d8559;fill-rule:nonzero;"/><path d="M368.636,1069.88l7.7,0l0,-15.05c0,-3.65 1.7,-6 4.95,-6c2.9,0 4.55,1.45 4.55,5.45l0,15.6l7.7,0l0,-15.05c0,-3.65 1.7,-6 5,-6c2.8,0 4.5,1.45 4.5,5.45l0,15.6l7.7,0l0,-17c0,-7.1 -3.55,-10.3 -9.15,-10.3c-4.05,0 -7.3,2.05 -8.4,5.55l-0.35,0c-1,-3.4 -4,-5.55 -8.25,-5.55c-3.7,0 -6.65,1.75 -7.8,4.7l-0.45,0l-0.5,-4.25l-7.2,0l0,26.85Z" style="fill:#5d8559;fill-rule:nonzero;"/><path d="M429.036,1070.38c6.8,0 11.65,-3.7 11.95,-9.15l-7.25,0c-0.35,2 -2.2,3.3 -4.95,3.3c-3.1,0 -5.25,-1.85 -5.25,-4.75l0,-1.4l17.75,0l0,-3.4c0,-7.45 -4.65,-12.45 -12.85,-12.45c-7.55,0 -12.7,4.85 -12.7,13.55l0,0.45c0,8.3 4.35,13.85 13.3,13.85Zm-5.5,-17c0,-3.3 1.95,-5.15 5.15,-5.15c3,0 5.05,1.55 5.05,5.15l0,0.25l-10.2,0l0,-0.25Z" style="fill:#5d8559;fill-rule:nonzero;"/><path d="M455.886,1069.88l8.05,0l0,-6l-6.3,0l0,-14.65l6.6,0l0,-6.2l-6.6,0l0,-8.4l-7.7,0l0,8.4l-5.8,0l0,6.2l5.8,0l0,14.7c0,3.55 1.7,5.95 5.95,5.95Z" style="fill:#5d8559;fill-rule:nonzero;"/><path d="M469.536,1069.88l7.7,0l0,-14.9c0,-3.8 1.75,-6.25 5.25,-6.25c2.9,0 4.8,1.35 4.8,5.65l0,15.5l7.65,0l0,-16.45c0,-7.6 -3.55,-10.9 -9.3,-10.9c-3.85,0 -6.8,1.95 -7.95,4.9l-0.45,0l0,-14l-7.7,0l0,36.45Z" style="fill:#5d8559;fill-rule:nonzero;"/><path d="M501.686,1039.63l7.7,0l0,-6.2l-7.7,0l0,6.2Zm0,30.25l7.7,0l0,-26.85l-7.7,0l0,26.85Z" style="fill:#5d8559;fill-rule:nonzero;"/><path d="M516.386,1069.88l7.7,0l0,-14.9c0,-3.75 1.75,-6.2 5.25,-6.2c2.9,0 4.8,1.35 4.8,5.65l0,15.45l7.65,0l0,-16.45c0,-7.55 -3.55,-10.9 -9.3,-10.9c-3.85,0 -6.8,1.95 -7.95,4.9l-0.45,0l-0.55,-4.4l-7.15,0l0,26.85Z" style="fill:#5d8559;fill-rule:nonzero;"/><path d="M559.136,1078.73c9.05,0 13.85,-3.5 13.85,-11.4l0,-24.3l-7.25,0l-0.4,3.8l-0.4,0c-1.25,-2.55 -3.7,-4.3 -7.9,-4.3c-6.45,0 -10.25,4.35 -10.25,12.8l0,0.2c0,7.7 3.3,12.65 10.2,12.65c3.55,0 6.6,-1.6 7.95,-4.6l0.35,0l0,4.65c0,3.3 -1.55,5.15 -5.55,5.15c-2.6,0 -4.45,-1 -4.75,-2.75l-7.4,0c0.3,4.85 4.55,8.1 11.55,8.1Zm1,-16.65c-3.1,0 -5.1,-1.9 -5.1,-5.1l0,-3.1c0,-3.25 1.85,-5.25 5.1,-5.25c3.15,0 5.15,2 5.15,5.35l0,2.8c0,3.15 -1.9,5.3 -5.15,5.3Z" style="fill:#5d8559;fill-rule:nonzero;"/><path d="M600.986,1070.38c7.5,0 11.8,-3.3 11.8,-8.6c0,-6.8 -5.1,-7.95 -10.15,-8.6c-3,-0.45 -5.2,-0.8 -5.2,-2.95c0,-1.55 1.2,-2.55 3.55,-2.55c2.4,0 3.95,1.15 3.95,3.2l7.25,0.05c-0.15,-5.35 -4.6,-8.4 -11.2,-8.4c-6.5,0 -11.1,3.1 -11.1,8.65c0,5.75 5.1,7.25 9.95,7.95c3.55,0.55 5.15,0.95 5.15,3.3c0,1.5 -1.1,2.65 -3.75,2.65c-2.65,0 -4.55,-1.05 -4.65,-3.7l-7.35,0c-0.05,5.35 4.1,9 11.75,9Z" style="fill:#5d8559;fill-rule:nonzero;"/><path d="M618.236,1069.88l7.7,0l0,-15.05c0,-3.65 1.7,-6 4.95,-6c2.9,0 4.55,1.45 4.55,5.45l0,15.6l7.7,0l0,-15.05c0,-3.65 1.7,-6 5,-6c2.8,0 4.5,1.45 4.5,5.45l0,15.6l7.7,0l0,-17c0,-7.1 -3.55,-10.3 -9.15,-10.3c-4.05,0 -7.3,2.05 -8.4,5.55l-0.35,0c-1,-3.4 -4,-5.55 -8.25,-5.55c-3.7,0 -6.65,1.75 -7.8,4.7l-0.45,0l-0.5,-4.25l-7.2,0l0,26.85Z" style="fill:#5d8559;fill-rule:nonzero;"/><path d="M675.586,1070.38c3.5,0 6.55,-1.65 7.9,-4.45l0.35,0l0,3.95l7.65,0l0,-26.85l-7.25,0l-0.4,3.95l-0.35,0c-1.35,-2.8 -4.35,-4.45 -7.85,-4.45c-6.35,0 -10.3,4 -10.3,13.4l0,1.15c0,8.1 3.1,13.3 10.25,13.3Zm3.1,-6.25c-3.25,0 -5.15,-1.95 -5.15,-5.35l0,-4.6c0,-3.4 1.9,-5.4 5.15,-5.4c3.1,0 5.15,2.05 5.15,5.5l0,4.4c0,3.45 -2.05,5.45 -5.15,5.45Z" style="fill:#5d8559;fill-rule:nonzero;"/><rect x="698.536" y="1033.43" width="7.7" height="36.45" style="fill:#5d8559;fill-rule:nonzero;"/><rect x="713.236" y="1033.43" width="7.7" height="36.45" style="fill:#5d8559;fill-rule:nonzero;"/><path d="M750.786,1070.38c6.8,0 11.65,-3.7 11.95,-9.15l-7.25,0c-0.35,2 -2.2,3.3 -4.95,3.3c-3.1,0 -5.25,-1.85 -5.25,-4.75l0,-1.4l17.75,0l0,-3.4c0,-7.45 -4.65,-12.45 -12.85,-12.45c-7.55,0 -12.7,4.85 -12.7,13.55l0,0.45c0,8.3 4.35,13.85 13.3,13.85Zm-5.5,-17c0,-3.3 1.95,-5.15 5.15,-5.15c3,0 5.05,1.55 5.05,5.15l0,0.25l-10.2,0l0,-0.25Z" style="fill:#5d8559;fill-rule:nonzero;"/><path d="M774.236,1069.88l9.6,0l9.2,-26.85l-7.85,0l-6,20.05l-0.3,0l-6.1,-20.05l-7.85,0l9.3,26.85Z" style="fill:#5d8559;fill-rule:nonzero;"/><path d="M808.286,1070.38c6.8,0 11.65,-3.7 11.95,-9.15l-7.25,0c-0.35,2 -2.2,3.3 -4.95,3.3c-3.1,0 -5.25,-1.85 -5.25,-4.75l0,-1.4l17.75,0l0,-3.4c0,-7.45 -4.65,-12.45 -12.85,-12.45c-7.55,0 -12.7,4.85 -12.7,13.55l0,0.45c0,8.3 4.35,13.85 13.3,13.85Zm-5.5,-17c0,-3.3 1.95,-5.15 5.15,-5.15c3,0 5.05,1.55 5.05,5.15l0,0.25l-10.2,0l0,-0.25Z" style="fill:#5d8559;fill-rule:nonzero;"/><path d="M825.736,1069.88l7.7,0l0,-20.65l9.2,0l0,-6.2l-10.95,0c-3.55,0 -5.95,2.3 -5.95,5.95l0,20.9Z" style="fill:#5d8559;fill-rule:nonzero;"/><path d="M846.236,1078.23l12,0c3.1,0 5.15,-1.55 5.15,-4.9l0,-6.35l10.6,-23.95l-8,0l-5.55,14.45l-0.8,2.55l-0.3,0l-0.8,-2.55l-5.4,-14.45l-8,0l10.6,23.95l0,5.25l-9.5,0l0,6Z" style="fill:#5d8559;fill-rule:nonzero;"/><path d="M898.136,1070.38c3.5,0 6.5,-1.65 7.85,-4.45l0.35,0l0.4,3.95l7.3,0l0,-36.45l-7.7,0l0,13.55l-0.35,0c-1.35,-2.8 -4.4,-4.45 -7.9,-4.45c-6.3,0 -10.25,4 -10.25,13.35l0,1.1c0,8.15 3.1,13.4 10.3,13.4Zm3.05,-6.25c-3.25,0 -5.15,-2 -5.15,-5.35l0,-4.65c0,-3.4 1.9,-5.35 5.15,-5.35c3.1,0 5.15,2.05 5.15,5.45l0,4.4c0,3.5 -2.05,5.5 -5.15,5.5Z" style="fill:#5d8559;fill-rule:nonzero;"/><path d="M929.536,1070.38c3.5,0 6.55,-1.65 7.9,-4.45l0.35,0l0,3.95l7.65,0l0,-26.85l-7.25,0l-0.4,3.95l-0.35,0c-1.35,-2.8 -4.35,-4.45 -7.85,-4.45c-6.35,0 -10.3,4 -10.3,13.4l0,1.15c0,8.1 3.1,13.3 10.25,13.3Zm3.1,-6.25c-3.25,0 -5.15,-1.95 -5.15,-5.35l0,-4.6c0,-3.4 1.9,-5.4 5.15,-5.4c3.1,0 5.15,2.05 5.15,5.5l0,4.4c0,3.45 -2.05,5.45 -5.15,5.45Z" style="fill:#5d8559;fill-rule:nonzero;"/><path d="M949.986,1078.23l12,0c3.1,0 5.15,-1.55 5.15,-4.9l0,-6.35l10.6,-23.95l-8,0l-5.55,14.45l-0.8,2.55l-0.3,0l-0.8,-2.55l-5.4,-14.45l-8,0l10.6,23.95l0,5.25l-9.5,0l0,6Z" style="fill:#5d8559;fill-rule:nonzero;"/><rect x="977.336" y="1062.93" width="7.3" height="6.95" style="fill:#5d8559;fill-rule:nonzero;"/></g><g id="process"><path d="M156.285,842.377l39.376,0l0,-55.702l40.097,-0c44.658,-0 66.027,-23.77 66.027,-59.785c-0,-36.495 -21.129,-59.545 -64.107,-59.545l-81.393,0l-0,175.032Zm76.111,-141.418c17.287,0 28.092,8.164 28.092,23.53l-0,7.443c-0,14.886 -10.084,23.53 -28.092,23.53l-36.735,-0l0,-54.503l36.735,0Z" style="fill:#30502d;fill-rule:nonzero;"/><path d="M327.956,842.377l36.975,0l-0,-99.16l44.178,-0l-0,-29.773l-52.582,0c-17.047,0 -28.571,11.045 -28.571,28.572l-0,100.361Z" style="fill:#30502d;fill-rule:nonzero;"/><path d="M484.5,844.778c42.257,0 62.426,-25.93 62.666,-66.027l-0,-0.72c-0,-45.379 -24.97,-66.988 -62.666,-66.988c-37.455,0 -62.186,21.609 -62.186,66.988l0,0.72c0,40.097 20.169,66.027 62.186,66.027Zm-0,-29.772c-16.087,0 -24.73,-9.364 -24.73,-25.21l-0,-23.05c-0,-15.846 9.364,-25.69 24.73,-25.69c15.606,-0 24.97,9.844 24.97,25.69l0,23.05c0,15.846 -8.643,25.21 -24.97,25.21Z" style="fill:#30502d;fill-rule:nonzero;"/><path d="M625.678,844.778c35.055,0 59.305,-19.928 59.785,-50.18l-36.255,-0c-0.961,12.005 -8.884,20.408 -23.53,20.408c-15.846,0 -24.73,-9.604 -24.73,-25.21l-0,-23.05c-0,-15.606 9.364,-25.69 24.97,-25.69c12.966,-0 22.089,6.722 23.29,20.168l36.015,0c-1.201,-30.493 -23.05,-50.181 -59.305,-50.181c-37.695,0 -62.185,21.849 -62.185,66.988l-0,0.72c-0,40.097 19.928,66.027 61.945,66.027Z" style="fill:#30502d;fill-rule:nonzero;"/><path d="M765.176,844.778c32.653,0 55.943,-17.767 57.383,-43.938l-34.814,0c-1.681,9.604 -10.564,15.847 -23.77,15.847c-14.886,-0 -25.21,-8.884 -25.21,-22.81l-0,-6.722l85.235,-0l-0,-16.327c-0,-35.775 -22.329,-59.785 -61.706,-59.785c-36.255,0 -60.985,23.29 -60.985,65.067l0,2.161c0,39.856 20.889,66.507 63.867,66.507Zm-26.411,-81.633c-0,-15.847 9.364,-24.73 24.73,-24.73c14.406,-0 24.25,7.443 24.25,24.73l-0,1.2l-48.98,0l-0,-1.2Z" style="fill:#30502d;fill-rule:nonzero;"/><path d="M896.27,844.778c36.014,0 56.663,-15.846 56.663,-41.297c-0,-32.653 -24.49,-38.175 -48.74,-41.297c-14.406,-2.16 -24.97,-3.841 -24.97,-14.165c-0,-7.443 5.762,-12.245 17.047,-12.245c11.524,-0 18.967,5.522 18.967,15.366l34.815,0.24c-0.721,-25.691 -22.089,-40.337 -53.782,-40.337c-31.213,0 -53.302,14.886 -53.302,41.537c-0,27.612 24.49,34.815 47.779,38.176c17.047,2.641 24.73,4.562 24.73,15.847c0,7.203 -5.282,12.725 -18.007,12.725c-12.725,-0 -21.849,-5.042 -22.329,-17.767l-35.295,-0c-0.24,25.69 19.688,43.217 56.424,43.217Z" style="fill:#30502d;fill-rule:nonzero;"/><path d="M1026.4,844.778c36.015,0 56.664,-15.846 56.664,-41.297c-0,-32.653 -24.491,-38.175 -48.741,-41.297c-14.405,-2.16 -24.97,-3.841 -24.97,-14.165c0,-7.443 5.763,-12.245 17.047,-12.245c11.525,-0 18.968,5.522 18.968,15.366l34.814,0.24c-0.72,-25.691 -22.089,-40.337 -53.782,-40.337c-31.213,0 -53.302,14.886 -53.302,41.537c0,27.612 24.49,34.815 47.78,38.176c17.047,2.641 24.73,4.562 24.73,15.847c0,7.203 -5.282,12.725 -18.007,12.725c-12.726,-0 -21.849,-5.042 -22.33,-17.767l-35.294,-0c-0.24,25.69 19.688,43.217 56.423,43.217Z" style="fill:#30502d;fill-rule:nonzero;"/></g><g id="name"><path d="M186.685,309.538l-0,-7l-29.95,0l-0,7l10.9,0l-0,29.45l8.15,0l-0,-29.45l10.9,0Z" style="fill:#5d8559;fill-rule:nonzero;"/><path d="M190.635,338.988l7.7,0l-0,-14.9c-0,-3.8 1.75,-6.25 5.25,-6.25c2.9,0 4.8,1.35 4.8,5.65l-0,15.5l7.65,0l-0,-16.45c-0,-7.6 -3.55,-10.9 -9.3,-10.9c-3.85,0 -6.8,1.95 -7.95,4.9l-0.45,0l-0,-14l-7.7,0l-0,36.45Z" style="fill:#5d8559;fill-rule:nonzero;"/><path d="M234.335,339.488c6.8,0 11.65,-3.7 11.95,-9.15l-7.25,0c-0.35,2 -2.2,3.3 -4.95,3.3c-3.1,0 -5.25,-1.85 -5.25,-4.75l-0,-1.4l17.75,0l-0,-3.4c-0,-7.45 -4.65,-12.45 -12.85,-12.45c-7.55,0 -12.7,4.85 -12.7,13.55l-0,0.45c-0,8.3 4.35,13.85 13.3,13.85Zm-5.5,-17c-0,-3.3 1.95,-5.15 5.15,-5.15c3,0 5.05,1.55 5.05,5.15l-0,0.25l-10.2,0l-0,-0.25Z" style="fill:#5d8559;fill-rule:nonzero;"/><path d="M156.335,405.655l7.9,-0l2.45,-7.3l15,-0l2.45,7.3l8.1,-0l-12.3,-36.45l-11.35,-0l-12.25,36.45Zm12.25,-13.55l3.6,-10.9l1.85,-5.65l0.3,-0l1.85,5.65l3.6,10.9l-11.2,-0Z" style="fill:#5d8559;fill-rule:nonzero;"/><path d="M203.985,406.155c3.5,-0 6.5,-1.65 7.85,-4.45l0.35,-0l0.4,3.95l7.3,-0l-0,-36.45l-7.7,-0l-0,13.55l-0.35,-0c-1.35,-2.8 -4.4,-4.45 -7.9,-4.45c-6.3,-0 -10.25,4 -10.25,13.35l-0,1.1c-0,8.15 3.1,13.4 10.3,13.4Zm3.05,-6.25c-3.25,-0 -5.15,-2 -5.15,-5.35l-0,-4.65c-0,-3.4 1.9,-5.35 5.15,-5.35c3.1,-0 5.15,2.05 5.15,5.45l-0,4.4c-0,3.5 -2.05,5.5 -5.15,5.5Z" style="fill:#5d8559;fill-rule:nonzero;"/><path d="M235.385,406.155c3.5,-0 6.55,-1.65 7.9,-4.45l0.35,-0l-0,3.95l7.65,-0l-0,-26.85l-7.25,-0l-0.4,3.95l-0.35,-0c-1.35,-2.8 -4.35,-4.45 -7.85,-4.45c-6.35,-0 -10.3,4 -10.3,13.4l-0,1.15c-0,8.1 3.1,13.3 10.25,13.3Zm3.1,-6.25c-3.25,-0 -5.15,-1.95 -5.15,-5.35l-0,-4.6c-0,-3.4 1.9,-5.4 5.15,-5.4c3.1,-0 5.15,2.05 5.15,5.5l-0,4.4c-0,3.45 -2.05,5.45 -5.15,5.45Z" style="fill:#5d8559;fill-rule:nonzero;"/><path d="M258.335,414.005l7.7,-0l-0,-12.3l0.35,-0c1.35,2.8 4.4,4.45 7.9,4.45c6.3,-0 10.3,-4 10.3,-13.3l-0,-1.15c-0,-8.15 -3.1,-13.4 -10.3,-13.4c-3.55,-0 -6.6,1.65 -7.9,4.45l-0.35,-0l-0.4,-3.95l-7.3,-0l-0,35.2Zm12.85,-14.1c-3.15,-0 -5.1,-2 -5.1,-5.45l-0,-4.4c-0,-3.45 1.95,-5.5 5.1,-5.5c3.3,-0 5.2,2 5.2,5.4l-0,4.6c-0,3.4 -1.9,5.35 -5.2,5.35Z" style="fill:#5d8559;fill-rule:nonzero;"/><path d="M312.135,375.405l7.65,-0l-0,-6.2l-7.65,-0l-0,6.2Zm-0,9.6l-0,20.65l7.65,-0l-0,-26.85l-18.85,-0l-0,-8.4l-7.7,-0l-0,8.4l-5.8,-0l-0,6.2l5.8,-0l-0,14.7c-0,3.55 1.65,5.95 5.95,5.95l8.05,-0l-0,-6l-6.3,-0l-0,-14.65l11.2,-0Z" style="fill:#5d8559;fill-rule:nonzero;"/><path d="M333.285,405.655l9.6,-0l9.2,-26.85l-7.85,-0l-6,20.05l-0.3,-0l-6.1,-20.05l-7.85,-0l9.3,26.85Z" style="fill:#5d8559;fill-rule:nonzero;"/><path d="M367.335,406.155c6.8,-0 11.65,-3.7 11.95,-9.15l-7.25,-0c-0.35,2 -2.2,3.3 -4.95,3.3c-3.1,-0 -5.25,-1.85 -5.25,-4.75l-0,-1.4l17.75,-0l-0,-3.4c-0,-7.45 -4.65,-12.45 -12.85,-12.45c-7.55,-0 -12.7,4.85 -12.7,13.55l-0,0.45c-0,8.3 4.35,13.85 13.3,13.85Zm-5.5,-17c-0,-3.3 1.95,-5.15 5.15,-5.15c3,-0 5.05,1.55 5.05,5.15l-0,0.25l-10.2,-0l-0,-0.25Z" style="fill:#5d8559;fill-rule:nonzero;"/><path d="M160.435,472.322l7.8,-0l-0,-24.35l0.25,-0l0.65,1.2l12.95,23.15l9.75,-0l-0,-36.45l-7.8,-0l-0,24.35l-0.25,-0l-0.7,-1.55l-12.2,-22.8l-10.45,-0l-0,36.45Z" style="fill:#5d8559;fill-rule:nonzero;"/><path d="M211.085,472.822c6.8,-0 11.65,-3.7 11.95,-9.15l-7.25,-0c-0.35,2 -2.2,3.3 -4.95,3.3c-3.1,-0 -5.25,-1.85 -5.25,-4.75l-0,-1.4l17.75,-0l-0,-3.4c-0,-7.45 -4.65,-12.45 -12.85,-12.45c-7.55,-0 -12.7,4.85 -12.7,13.55l-0,0.45c-0,8.3 4.35,13.85 13.3,13.85Zm-5.5,-17c-0,-3.3 1.95,-5.15 5.15,-5.15c3,-0 5.05,1.55 5.05,5.15l-0,0.25l-10.2,-0l-0,-0.25Z" style="fill:#5d8559;fill-rule:nonzero;"/><path d="M237.935,472.322l8.05,-0l-0,-6l-6.3,-0l-0,-14.65l6.6,-0l-0,-6.2l-6.6,-0l-0,-8.4l-7.7,-0l-0,8.4l-5.8,-0l-0,6.2l5.8,-0l-0,14.7c-0,3.55 1.7,5.95 5.95,5.95Z" style="fill:#5d8559;fill-rule:nonzero;"/><path d="M255.885,472.322l8.75,-0l3.45,-15.05l0.35,-2.25l0.25,-0l0.4,2.25l3.5,15.05l8.85,-0l6.7,-26.85l-7.1,-0l-3.85,17.4l-0.3,1.9l-0.25,-0l-0.3,-1.9l-3.85,-17.4l-7.5,-0l-4,17.4l-0.3,1.9l-0.25,-0l-0.3,-1.9l-3.85,-17.4l-7,-0l6.6,26.85Z" style="fill:#5d8559;fill-rule:nonzero;"/><path d="M303.385,472.822c8.8,-0 13,-5.4 13.05,-13.75l-0,-0.15c-0,-9.45 -5.2,-13.95 -13.05,-13.95c-7.8,-0 -12.95,4.5 -12.95,13.95l-0,0.15c-0,8.35 4.2,13.75 12.95,13.75Zm-0,-6.2c-3.35,-0 -5.15,-1.95 -5.15,-5.25l-0,-4.8c-0,-3.3 1.95,-5.35 5.15,-5.35c3.25,-0 5.2,2.05 5.2,5.35l-0,4.8c-0,3.3 -1.8,5.25 -5.2,5.25Z" style="fill:#5d8559;fill-rule:nonzero;"/><path d="M321.635,472.322l7.7,-0l-0,-20.65l9.2,-0l-0,-6.2l-10.95,-0c-3.55,-0 -5.95,2.3 -5.95,5.95l-0,20.9Z" style="fill:#5d8559;fill-rule:nonzero;"/><path d="M343.685,472.322l7.7,-0l-0,-7.6l3.85,-3.75l7.3,11.35l8.8,-0l-10.65,-16.45l10.2,-10.4l-9.25,-0l-10.25,11.05l-0,-20.65l-7.7,-0l-0,36.45Z" style="fill:#5d8559;fill-rule:nonzero;"/></g></g></svg>