<?xml version="1.0" encoding="UTF-8" standalone="no"?>
<!DOCTYPE svg PUBLIC "-//W3C//DTD SVG 1.1//EN" "http://www.w3.org/Graphics/SVG/1.1/DTD/svg11.dtd">
<svg width="100%" height="100%" viewBox="0 0 2048 2048" version="1.1" xmlns="http://www.w3.org/2000/svg" xmlns:xlink="http://www.w3.org/1999/xlink" xml:space="preserve" xmlns:serif="http://www.serif.com/" style="fill-rule:evenodd;clip-rule:evenodd;stroke-linejoin:round;stroke-miterlimit:2;">
    <g id="Artboard1" transform="matrix(0.897561,0,0,1,-1978.94,0)">
        <rect x="2204.8" y="0" width="2281.74" height="2048" style="fill:none;"/>
        <g transform="matrix(1.11413,0,0,1,2053.23,63.5832)">
            <g>
                <g transform="matrix(0.844333,0,0,1.72965,19.2821,-1403.26)">
                    <path d="M550.882,1733.93C550.31,1734.47 549.647,1734.89 548.861,1735.16C541.961,1737.53 514.76,1745.39 517.261,1735.16C520.161,1723.3 556.293,1675.54 566.261,1663.99C570.167,1659.46 572.419,1653.24 572.545,1652.88C576.618,1641.26 574.225,1605.03 566.958,1593.24C559.691,1581.45 530.625,1595.52 523.358,1593.24C519.011,1591.88 518.817,1579.93 523.358,1579.57C523.763,1579.54 524.184,1579.51 524.622,1579.47C525.168,1578.54 525.929,1577.91 526.911,1577.84C527.316,1577.8 527.737,1577.77 528.176,1577.74C528.721,1576.8 529.482,1576.18 530.464,1576.1C530.869,1576.07 531.29,1576.04 531.729,1576C532.274,1575.07 533.035,1574.44 534.017,1574.37C562.517,1572.09 676.517,1569.65 705.017,1574.37C714.328,1575.91 696.472,1598.67 705.017,1602.68C713.26,1606.54 741.753,1607.24 757.333,1604.78C759.232,1597.84 750.218,1583.51 754.758,1579.57C755.826,1578.64 757.526,1577.72 759.61,1576.89C760.579,1576.29 761.788,1575.7 763.163,1575.16C764.133,1574.56 765.341,1573.97 766.716,1573.42C773.692,1569.08 793.023,1565.54 798.017,1574.37C803.451,1583.97 792.484,1622.37 798.017,1631.97C801.426,1637.88 811.16,1640.15 819.415,1638.77C819.849,1638.27 820.232,1637.74 820.558,1637.17C826.091,1627.57 803.516,1588.41 820.558,1579.57C821.27,1579.2 822.064,1578.86 822.934,1578.54C823.304,1578.29 823.696,1578.05 824.111,1577.84C824.823,1577.47 825.617,1577.12 826.488,1576.8C826.857,1576.55 827.249,1576.32 827.664,1576.1C828.376,1575.73 829.171,1575.39 830.041,1575.07C830.41,1574.82 830.802,1574.58 831.217,1574.37C849.717,1564.77 923.717,1572.11 942.217,1574.37C946.708,1574.92 946.674,1587.16 942.217,1587.94C941.766,1588.02 941.267,1588.09 940.725,1588.15C940.198,1588.96 939.511,1589.53 938.664,1589.67C938.213,1589.75 937.714,1589.82 937.172,1589.88C936.645,1590.7 935.958,1591.26 935.111,1591.41C934.659,1591.49 934.161,1591.56 933.618,1591.62C933.092,1592.43 932.405,1592.99 931.558,1593.14C920.291,1595.1 879.806,1591.79 860.618,1592.48C859.706,1596.69 860.847,1602.36 864.017,1603.07C875.351,1605.59 920.684,1600.95 932.017,1603.07C936.176,1603.85 936.176,1614.99 932.017,1615.76C931.548,1615.85 931.019,1615.92 930.438,1615.99C929.941,1616.79 929.283,1617.34 928.464,1617.5C927.994,1617.58 927.466,1617.66 926.884,1617.73C926.388,1618.52 925.73,1619.08 924.911,1619.23C924.441,1619.32 923.913,1619.39 923.331,1619.46C922.835,1620.26 922.177,1620.81 921.358,1620.97C911.725,1622.76 877.527,1619.55 860.524,1620.21C859.319,1624.77 860.473,1631.23 864.017,1631.97C877.051,1634.67 929.184,1629.71 942.217,1631.97C946.674,1632.74 946.728,1645.19 942.217,1645.54C941.804,1645.57 941.374,1645.6 940.927,1645.63C940.379,1646.58 939.625,1647.2 938.664,1647.27C938.251,1647.31 937.821,1647.34 937.374,1647.37C936.826,1648.31 936.072,1648.93 935.111,1649.01C934.698,1649.04 934.268,1649.07 933.821,1649.1C933.273,1650.05 932.519,1650.67 931.558,1650.74C924.916,1651.25 913.781,1651.78 900.18,1652.24C907.873,1652.6 915.488,1654.84 921.32,1658.78C935.524,1668.38 950.139,1706.78 961.139,1716.38C964.707,1719.5 971.048,1721.57 976.679,1721.55C980.924,1711.95 958.23,1668.36 976.175,1664.09C977.124,1663.29 978.297,1662.7 979.728,1662.36C980.677,1661.55 981.85,1660.96 983.281,1660.62C984.335,1659.73 985.666,1659.1 987.32,1658.78C1037.62,1649.18 1238.82,1646.92 1289.12,1658.78C1312.21,1664.23 1294.59,1718.09 1289.12,1729.95C1287.84,1732.72 1285.15,1734.69 1281.81,1735.87C1280.75,1736.57 1279.55,1737.15 1278.26,1737.61C1277.2,1738.3 1276,1738.88 1274.7,1739.34C1266.61,1744.68 1250.15,1743.04 1245.66,1735.16C1240.19,1725.57 1255.99,1687.24 1245.66,1677.65C1237.54,1670.12 1210.27,1668.51 1193.95,1672.82C1184.37,1682.97 1199.69,1720.49 1194.32,1729.95C1192.87,1732.52 1190.19,1734.39 1186.97,1735.56C1185.9,1736.25 1184.7,1736.83 1183.41,1737.3C1182.35,1737.99 1181.15,1738.57 1179.86,1739.03C1171.6,1744.36 1155.55,1743.07 1151.06,1735.16C1145.63,1725.57 1160.54,1687.24 1151.06,1677.65C1144.45,1670.98 1123.09,1671.31 1110.16,1673.68C1108.79,1677.58 1108.52,1679.46 1108.52,1683C1108.52,1688.23 1104,1692.01 1097.44,1694.8C1096.35,1695.42 1095.15,1696 1093.89,1696.54C1092.79,1697.15 1091.6,1697.73 1090.34,1698.27C1079.04,1704.63 1057.81,1706.74 1046.31,1708.47C1031.22,1710.73 1024.53,1709.68 1016.94,1710.77C1015.42,1716.07 1018.38,1725.44 1007.49,1729.28C1006.5,1729.93 1005.33,1730.52 1003.93,1731.01C1002.95,1731.67 1001.78,1732.26 1000.38,1732.75C999.2,1733.54 997.745,1734.22 995.949,1734.77C982.633,1738.83 936.544,1741.62 927.461,1735.16C918.584,1728.84 923.311,1722.06 917.661,1720.9C907.738,1718.88 879.553,1718.58 864.26,1720.01C862.726,1723.77 861.993,1728.76 858.52,1729.95C858.034,1730.12 857.447,1730.32 856.777,1730.53C856.267,1731.05 855.674,1731.45 854.967,1731.69C854.481,1731.86 853.894,1732.05 853.224,1732.27C852.714,1732.78 852.121,1733.18 851.414,1733.42C850.928,1733.59 850.341,1733.79 849.671,1734C849.161,1734.52 848.568,1734.91 847.861,1735.16C846.396,1735.66 844.016,1736.41 841.199,1737.19C898.697,1737.47 955.814,1739.85 980.32,1743.81C995.491,1746.25 994.383,1775.85 996.314,1788.67C1001.36,1774.06 1008.12,1755.27 1014.86,1749.01C1016.73,1747.27 1019.03,1745.9 1021.59,1744.9C1022.7,1744.24 1023.89,1743.66 1025.14,1743.17C1026.25,1742.5 1027.44,1741.92 1028.69,1741.43C1038.19,1735.73 1053.7,1736.51 1061.52,1743.81C1069.05,1750.82 1076.53,1773.58 1081.64,1788.54C1084.74,1775.2 1089.11,1755.28 1095.46,1749.01C1097.09,1747.39 1099.39,1746.04 1102.03,1744.99C1103.11,1744.34 1104.31,1743.76 1105.58,1743.25C1106.66,1742.61 1107.86,1742.03 1109.14,1741.52C1118.95,1735.66 1138.36,1735.21 1139.92,1743.81C1141.67,1753.4 1112.84,1791.81 1116.61,1801.41C1119.5,1808.75 1141.42,1806.98 1154.19,1804.12C1155.78,1800.43 1152.22,1795.29 1151.99,1789.77C1151.77,1784.16 1151.49,1781.68 1154.34,1776.28C1157.1,1771.06 1162.36,1760.98 1177.18,1754.41C1178.3,1753.81 1179.48,1753.23 1180.73,1752.67C1181.85,1752.08 1183.03,1751.5 1184.29,1750.94C1192.85,1746.35 1205.16,1742.93 1223.12,1742.93C1229.74,1742.93 1235.59,1743.77 1241.84,1743.81C1269.34,1743.95 1355.07,1740.01 1388.12,1743.81C1406.92,1745.96 1440.12,1752.69 1440.12,1766.55C1440.12,1770.67 1435.42,1773.77 1429.54,1776.38C1428.43,1776.99 1427.23,1777.56 1425.98,1778.12C1424.88,1778.72 1423.68,1779.3 1422.43,1779.85C1418.13,1782.19 1412.53,1784.12 1407.58,1785.95C1407.16,1786.37 1406.87,1786.81 1406.72,1787.25C1404.69,1793.48 1419.25,1801.54 1427.92,1803.95C1434.22,1805.7 1446.54,1810.17 1455.71,1810.13C1455.84,1809.82 1455.96,1809.5 1456.06,1809.15C1462.53,1787.22 1460.02,1699.49 1456.06,1677.56C1455.19,1672.71 1448.49,1671.85 1442.14,1673.16C1431.47,1683.94 1416.23,1720.61 1402.52,1729.95C1400.73,1731.18 1398.77,1732.23 1396.68,1733.11C1395.54,1733.75 1394.36,1734.32 1393.12,1734.84C1391.99,1735.48 1390.8,1736.06 1389.57,1736.58C1377.33,1743.46 1358.85,1743.46 1347.86,1735.16C1332.16,1723.3 1299.96,1675.85 1297.66,1663.99C1296.97,1660.41 1299.12,1658.33 1302.72,1657.36C1303.61,1656.59 1304.82,1656.02 1306.27,1655.63C1307.16,1654.86 1308.37,1654.29 1309.82,1653.9C1315.83,1648.65 1336.77,1652.8 1344.72,1658.78C1355.65,1667.01 1369.77,1698.12 1376.09,1709.04C1381.38,1695.44 1388.64,1670.16 1403.92,1664.53C1405.06,1663.84 1406.24,1663.25 1407.48,1662.8C1408.61,1662.1 1409.79,1661.52 1411.03,1661.06C1412.68,1660.05 1414.44,1659.27 1416.32,1658.78C1449.49,1650.17 1561.61,1649.72 1582.72,1658.78C1591.46,1662.54 1597.33,1667.06 1586.73,1671.08C1585.85,1671.66 1584.68,1672.24 1583.18,1672.81C1582.3,1673.4 1581.13,1673.98 1579.63,1674.55C1578.08,1675.58 1575.63,1676.59 1572.06,1677.56C1560.95,1680.58 1513.85,1674.71 1497.43,1676.81C1494.46,1680.59 1496.49,1685.1 1504.52,1687.49C1515.16,1690.65 1561.17,1685.39 1572.52,1687.49C1584.56,1689.7 1582.04,1696.67 1573.39,1699.87C1572.38,1700.52 1571.18,1701.11 1569.84,1701.61C1568.82,1702.26 1567.63,1702.85 1566.29,1703.34C1565.06,1704.13 1563.56,1704.83 1561.86,1705.38C1552.46,1708.45 1514.17,1702.4 1501.71,1705.05C1495.93,1708.83 1495.07,1712.27 1504.52,1716.38C1515.09,1720.98 1570.31,1713.41 1582.72,1716.38C1595.3,1719.4 1596.45,1726.56 1588.06,1729.1C1587.18,1729.79 1585.99,1730.38 1584.51,1730.83C1583.63,1731.52 1582.44,1732.12 1580.95,1732.56C1579.2,1733.94 1576.21,1734.94 1572.06,1735.16C1559.4,1735.83 1516.21,1729.4 1496.11,1732.89C1486.77,1744.37 1491.17,1774.81 1499.52,1776.9C1500.26,1777.09 1501.14,1777.07 1502.13,1776.86C1514.48,1768.93 1531.28,1754.51 1542.42,1749.73C1543.65,1749.06 1544.84,1748.48 1545.97,1747.99C1547.21,1747.33 1548.4,1746.74 1549.53,1746.26C1551.45,1745.22 1553.27,1744.38 1554.92,1743.81C1567.52,1739.43 1597.12,1738.78 1594.92,1743.81C1594.49,1744.79 1592.16,1746.1 1588.69,1747.65C1587.72,1748.19 1586.52,1748.77 1585.14,1749.39C1584.17,1749.92 1582.97,1750.5 1581.59,1751.12C1576.09,1754.15 1563.31,1758.57 1551.98,1763.55C1545.86,1766.98 1541.62,1770.54 1541.72,1773.97C1542.05,1785.84 1594.32,1808.14 1596.92,1814.98C1597.61,1816.78 1596.04,1817.94 1593.15,1818.61C1592.56,1819.38 1591.31,1819.95 1589.59,1820.34C1589,1821.11 1587.76,1821.68 1586.04,1822.07C1582.66,1826.5 1557.72,1824.25 1546.66,1820.18C1533.63,1815.38 1517.69,1794.47 1508.06,1791.38C1506.93,1791.02 1505.74,1790.92 1504.52,1791.03C1502.38,1792.83 1500.61,1794.79 1499.52,1796.43C1496.32,1801.23 1505.59,1813.8 1499.52,1814.98C1499.01,1815.08 1498.45,1815.17 1497.85,1815.27C1497.56,1816.01 1496.98,1816.52 1495.97,1816.71C1495.45,1816.81 1494.9,1816.91 1494.3,1817C1494.01,1817.74 1493.42,1818.25 1492.41,1818.45C1491.9,1818.55 1491.34,1818.64 1490.74,1818.74C1490.45,1819.48 1489.87,1819.99 1488.86,1820.18C1472.89,1823.27 1414.16,1824.39 1393.06,1820.18C1380.04,1817.58 1370.93,1799.11 1362.26,1794.89C1359.16,1793.39 1354.88,1792.35 1350.9,1792.17C1350.44,1798.42 1356.41,1811.36 1351.72,1814.98C1350.74,1815.73 1349.22,1816.53 1347.36,1817.27C1346.43,1817.85 1345.22,1818.44 1343.81,1819C1342.88,1819.58 1341.67,1820.17 1340.26,1820.74C1333.71,1824.83 1313.27,1829.36 1308.26,1820.18C1302.79,1810.16 1314.81,1770.06 1308.26,1760.04C1303.76,1753.15 1288.83,1753.8 1278.6,1756.2C1276.4,1760.31 1280.06,1766.09 1282.48,1769.75C1284.67,1773.08 1288.57,1782.04 1286.58,1786.12C1283.63,1792.17 1278,1802.21 1262.89,1808.95C1261.77,1809.55 1260.59,1810.13 1259.34,1810.69C1258.22,1811.29 1257.04,1811.87 1255.79,1812.42C1246.37,1817.44 1232.68,1821.16 1212.46,1821.16C1205.19,1821.16 1203.86,1821.47 1189.95,1821.93C1163.91,1822.81 1081.93,1827.54 1055.86,1820.18C1042.4,1816.38 1040.05,1792.3 1037.24,1780.52C1033.62,1792.37 1028.53,1809.51 1020.52,1814.98C1018.96,1816.04 1017.15,1817 1015.17,1817.83C1014.07,1818.46 1012.88,1819.04 1011.62,1819.57C1010.51,1820.19 1009.33,1820.77 1008.06,1821.3C996.758,1827.74 976.048,1829.23 965.261,1820.18C953.842,1810.6 954.679,1772.26 941.346,1762.68C931.351,1755.49 910.077,1753.69 896.113,1757.28C896.048,1757.34 895.984,1757.41 895.92,1757.47C886.573,1767.06 901.354,1805.39 895.92,1814.98C894.466,1817.54 891.794,1819.41 888.566,1820.59C887.498,1821.27 886.299,1821.85 885.013,1822.32C883.945,1823.01 882.746,1823.59 881.459,1824.05C873.198,1829.38 857.145,1828.09 852.661,1820.18C847.228,1810.6 863.068,1772.26 852.661,1762.68C842.254,1753.09 811.066,1758.7 794.937,1758.76C786.161,1758.8 783.27,1758.79 776.657,1759.13C766.704,1759.63 741.095,1759.94 726.034,1761.51C724.938,1765.75 726.037,1771.78 729.32,1772.51C740.654,1775.03 785.987,1770.39 797.32,1772.51C801.479,1773.28 801.479,1784.42 797.32,1785.2C796.851,1785.29 796.322,1785.36 795.741,1785.43C795.244,1786.23 794.586,1786.78 793.767,1786.93C793.298,1787.02 792.769,1787.1 792.187,1787.16C791.691,1787.96 791.033,1788.52 790.214,1788.67C789.744,1788.76 789.216,1788.83 788.634,1788.9C788.138,1789.7 787.48,1790.25 786.661,1790.4C777.028,1792.2 742.83,1788.99 725.827,1789.65C724.622,1794.21 725.776,1800.67 729.32,1801.41C742.354,1804.11 794.487,1799.14 807.52,1801.41C811.977,1802.18 812.032,1814.64 807.52,1814.98C807.107,1815.01 806.678,1815.04 806.234,1815.07C805.686,1816.02 804.931,1816.64 803.967,1816.71C803.554,1816.74 803.125,1816.77 802.681,1816.81C802.133,1817.75 801.378,1818.38 800.414,1818.45C800.001,1818.48 799.572,1818.51 799.128,1818.54C798.58,1819.49 797.824,1820.11 796.861,1820.18C766.294,1822.44 652.661,1827.71 613.461,1820.18C596.393,1816.9 580.634,1797.15 570.061,1784.35C571.116,1796.16 571.927,1810.09 568.72,1814.98C567.366,1817.04 564.884,1818.68 561.88,1819.8C560.826,1820.47 559.625,1821.05 558.327,1821.53C557.273,1822.2 556.072,1822.78 554.774,1823.27C546.792,1828.34 530.419,1828.3 526.861,1820.18C521.661,1808.32 519.894,1760.87 526.861,1749.01C528.535,1746.16 531.097,1744.32 534.196,1743.26C535.271,1742.54 536.464,1741.97 537.749,1741.53C538.824,1740.81 540.017,1740.23 541.302,1739.8C550.574,1733.56 568.574,1738.52 579.32,1743.81C591.311,1749.7 609.607,1769.31 620.94,1781.1C620.403,1763.81 619.584,1739.48 621.526,1730.63C622.024,1728.37 623.367,1721.26 614.422,1720.13C606.337,1719.11 580.632,1717.07 566.654,1718.76C564.378,1722.8 563.7,1728.52 559.52,1729.95C559.086,1730.11 558.571,1730.28 557.988,1730.46C557.416,1731 556.754,1731.42 555.967,1731.69C555.533,1731.84 555.018,1732.01 554.435,1732.2C553.863,1732.73 553.2,1733.15 552.414,1733.42C551.98,1733.57 551.465,1733.75 550.882,1733.93ZM892.95,1652.47C845.979,1653.87 776.439,1654.33 754.758,1650.74C745.126,1649.15 763.543,1625.71 754.758,1621.45C746.512,1617.45 718.002,1616.73 702.426,1619.28C700.198,1626.42 709.632,1641.42 705.017,1645.54C703.925,1646.52 702.176,1647.48 700.033,1648.32C699.055,1648.93 697.848,1649.52 696.48,1650.06C695.502,1650.67 694.294,1651.25 692.927,1651.79C685.809,1656.22 666.583,1659.55 661.558,1650.74C656.091,1641.16 671.891,1602.82 661.558,1593.24C653.63,1585.88 627.451,1582.87 611.028,1587.2C610.74,1587.47 610.469,1587.75 610.217,1588.04C599.884,1599.83 607.135,1636.11 613.809,1647.48C616.342,1651.8 619.619,1655.79 622.32,1658.78C630.974,1668.38 649.55,1701.61 660.55,1711.21C664.063,1714.28 670.417,1715.75 676.124,1715.24C676.302,1714.95 676.461,1714.65 676.601,1714.35C680.965,1704.73 667.694,1673.51 677.661,1663.89C679.137,1662.46 681.065,1661.35 683.342,1660.5C684.399,1659.83 685.59,1659.25 686.895,1658.76C687.952,1658.09 689.143,1657.52 690.448,1657.03C702.107,1649.63 730.095,1653.81 748.12,1658.68C769.887,1664.58 813.475,1684.04 818.812,1691.11C819.202,1691.63 819.855,1692.63 819.881,1693.69C819.91,1694.81 819.521,1695.36 818.269,1697.04C815.492,1700.77 804.027,1707.72 790.048,1714.42C788.885,1715 787.699,1715.58 786.495,1716.15C785.332,1716.73 784.146,1717.31 782.942,1717.89C768.759,1724.94 751.213,1732.05 737.461,1735.16C711.494,1741.03 702.643,1731.54 669.02,1735.77C667.165,1736 664.606,1736.67 661.86,1737.65C658.988,1739.58 656.873,1741.72 656.481,1743.81C652.926,1762.76 658.896,1792.37 663.12,1801.41C666.052,1807.68 676.096,1809.86 684.614,1808.31C685.093,1807.78 685.512,1807.21 685.861,1806.61C691.391,1797.07 667.367,1753.41 685.492,1749.09C686.435,1748.29 687.607,1747.7 689.045,1747.36C689.988,1746.55 691.16,1745.96 692.598,1745.62C693.621,1744.75 694.913,1744.13 696.52,1743.81C717.319,1739.58 765.012,1737.51 816.186,1737.2C816.052,1736.62 816.07,1735.94 816.261,1735.16C819.161,1723.3 849.528,1675.85 865.261,1663.99C867.228,1662.5 869.426,1661.28 871.781,1660.3C872.916,1659.66 874.104,1659.08 875.334,1658.57C876.469,1657.92 877.657,1657.34 878.887,1656.83C883.032,1654.47 887.889,1653.03 892.95,1652.47ZM891.805,1679.87C891.436,1680.51 890.958,1681.27 890.32,1682.21C886.687,1687.6 870.854,1699.95 875.92,1703.5C879.574,1706.06 898.618,1706.77 910.857,1705.64C909.276,1700.49 898.567,1691.73 895.661,1687.42C893.185,1683.75 893.541,1682.47 892.331,1680.59C892.163,1680.33 891.988,1680.09 891.805,1679.87ZM1017.74,1675.65C1015.21,1681.42 1016,1691.63 1020.12,1694.61C1025.22,1698.31 1041.72,1696.21 1050.72,1694.61C1055.54,1693.76 1062.07,1692.17 1067.45,1690.56C1068.2,1688.65 1066.9,1686.26 1064.67,1684.24C1061.91,1681.74 1048.36,1679.12 1040.06,1677.65C1034.08,1676.6 1024.8,1675.31 1017.74,1675.65ZM592.281,1680.78C591.949,1681.28 591.627,1681.76 591.32,1682.21C587.687,1687.6 571.854,1699.95 576.92,1703.5C580.574,1706.06 599.618,1706.77 611.857,1705.64C610.276,1700.49 599.567,1691.73 596.661,1687.42C595.335,1685.45 593.717,1682.95 592.281,1680.78ZM1349.13,1760.87C1346.86,1766.19 1347.72,1775.04 1351.72,1777.68C1356.82,1781.05 1373.32,1779.11 1382.32,1777.68C1386.41,1777.03 1391.27,1775.38 1395.59,1773.64C1395.9,1772.83 1395.72,1771.6 1395.06,1771.27C1391.16,1769.33 1379.87,1763.98 1371.66,1762.68C1365.62,1761.72 1356.21,1760.53 1349.13,1760.87ZM720.419,1673.66C716.634,1682.78 716.868,1709.43 721.12,1716.38C725.62,1723.74 739.416,1718.67 748.12,1716.38C752.904,1715.13 759.564,1712.54 765.975,1709.65C769.262,1707.9 771.986,1706.27 773.661,1704.99C776.562,1702.78 776.562,1696.26 773.661,1694.06C767.628,1689.47 747.994,1680.23 737.461,1677.46C732.541,1676.17 725.994,1673.99 720.419,1673.66ZM1197.11,1764C1192.15,1767.58 1189.27,1771.62 1186.32,1773.88C1183.38,1776.13 1183.38,1782.75 1186.32,1785.01C1192.45,1789.71 1200.12,1802.09 1223.12,1802.09C1228.97,1802.09 1233.83,1801.29 1237.92,1800.02C1243.05,1796.45 1246.33,1792.45 1249.26,1790.21C1252.2,1787.95 1252.2,1781.34 1249.26,1779.08C1243.13,1774.38 1237.26,1761.99 1212.46,1761.99C1206.26,1761.99 1201.24,1762.77 1197.11,1764Z" style="fill:none;stroke:rgb(95,127,92);stroke-width:1.61px;"/>
                </g>
            </g>
            <g transform="matrix(0.965989,0,0,0.910469,119.782,11.6561)">
                <g transform="matrix(1.3126,0,0,1.3126,-58.3797,-812.583)">
                    <path d="M352.413,1158.44C352.222,1157.79 351.062,1158.46 350.384,1158.46C306.141,1158.46 270.222,1122.55 270.222,1078.3C270.222,1034.06 306.141,998.141 350.384,998.141C394.626,998.141 430.545,1034.06 430.545,1078.3C430.545,1110.17 386.169,1122.16 384.954,1150.64C383.5,1184.7 410.779,1261.13 421.825,1282.7C426.314,1291.46 449.865,1306.57 459.909,1306.57C478.602,1306.57 493.366,1303.24 504.562,1289.1C535.451,1250.09 625.203,1107.82 636.571,1045.97C645.187,999.083 572.768,970.239 572.768,917.98C572.768,829.495 644.606,757.657 733.091,757.657C821.576,757.657 893.414,829.495 893.414,917.98C893.414,963.532 838.327,993.52 843.828,1033.87C849.329,1074.22 909.97,1139.32 926.423,1160.09C929.777,1164.32 939.971,1160.07 949.831,1159.53C994.007,1157.1 1022.71,1194.38 1022.71,1238.63C1022.71,1264.05 988.818,1278.44 992.371,1301.41C997.757,1336.24 1036.61,1424.44 1055.03,1447.6C1065.07,1460.22 1086.21,1440.32 1102.87,1440.32C1145.05,1440.32 1182.99,1497.27 1212.08,1483.31C1237.17,1471.27 1269,1430.25 1284.01,1412.16C1284.23,1411.89 1285.87,1408.8 1286.07,1408.54C1286.83,1407.64 1286.63,1395.67 1286.45,1394.73C1285.74,1391.02 1283.57,1381.34 1282.6,1379.9C1257.83,1343.24 1274,1308.98 1310.66,1284.22C1347.32,1259.45 1397.19,1269.11 1421.95,1305.77C1446.72,1342.43 1437.06,1392.3 1400.4,1417.07C1371.85,1436.36 1332.96,1397.12 1308.81,1415.8C1285.26,1434.01 1245.46,1471.67 1227.88,1500.31C1211.28,1527.35 1263.19,1562.68 1263.19,1600.65C1263.19,1689.13 1191.35,1760.97 1102.87,1760.97C1032.43,1760.97 994.382,1666.46 951.041,1652.24C915.975,1640.73 886.847,1661.51 862.15,1666.75C854.9,1668.29 846.544,1680.85 846.544,1682.59C846.544,1726.83 807.071,1760.97 762.828,1760.97C718.586,1760.97 682.667,1725.05 682.667,1680.81C682.667,1636.57 718.586,1600.65 762.828,1600.65C797.285,1600.65 807.865,1648.15 838.017,1652.97C868.411,1657.83 905.116,1639.85 922.538,1631.13C931.263,1626.76 939.658,1611.71 942.545,1600.65C957.338,1543.96 1018.32,1510.05 1020.99,1462.81C1023.67,1415.56 969.583,1341.34 958.578,1317.18C958.07,1316.07 956.176,1317.64 954.961,1317.83C950.914,1318.46 946.768,1318.79 942.545,1318.79C911.802,1318.79 898.714,1270.67 871.632,1276.02C814.892,1287.22 660.558,1356.88 616.422,1382.97C603.488,1390.62 611.556,1421.26 611.556,1440.32C611.556,1528.81 539.717,1600.65 451.232,1600.65C362.748,1600.65 290.909,1528.81 290.909,1440.32C290.909,1373.61 379.516,1339.2 389.766,1292.22C399.636,1246.99 358.977,1180.73 352.413,1158.44ZM544.204,1309.73C537.417,1335.46 570.752,1380.04 595.691,1370.75C647.932,1351.29 807.471,1279.21 854.002,1263.79C861.041,1261.45 873.23,1230 873.23,1222.36C873.23,1201.73 871.015,1191.04 864.877,1172.89C854.943,1143.52 832.752,1068.86 802.779,1062.38C778.069,1057.04 761.964,1050.97 736.995,1050.97C716.749,1050.97 699.594,1055.77 675.627,1067.68C631.043,1089.84 557.527,1259.22 544.204,1309.73Z" style="fill:rgb(95,127,92);"/>
                </g>
                <g transform="matrix(1.31251,0,-0.00490513,1.31268,-42.7758,-825.139)">
                    <path d="M352.413,1158.44C352.222,1157.79 351.062,1158.46 350.384,1158.46C306.141,1158.46 270.222,1122.55 270.222,1078.3C270.222,1034.06 306.141,998.141 350.384,998.141C394.626,998.141 430.545,1034.06 430.545,1078.3C430.545,1110.17 386.169,1122.16 384.954,1150.64C383.5,1184.7 410.779,1261.13 421.825,1282.7C426.314,1291.46 449.865,1306.57 459.909,1306.57C478.602,1306.57 493.366,1303.24 504.562,1289.1C535.451,1250.09 625.203,1107.82 636.571,1045.97C645.187,999.083 572.768,970.239 572.768,917.98C572.768,829.495 644.606,757.657 733.091,757.657C821.576,757.657 893.414,829.495 893.414,917.98C893.414,963.532 838.327,993.52 843.828,1033.87C849.329,1074.22 909.97,1139.32 926.423,1160.09C929.777,1164.32 939.971,1160.07 949.831,1159.53C994.007,1157.1 1022.71,1194.38 1022.71,1238.63C1022.71,1264.05 988.818,1278.44 992.371,1301.41C997.757,1336.24 1036.61,1424.44 1055.03,1447.6C1065.07,1460.22 1086.21,1440.32 1102.87,1440.32C1145.05,1440.32 1182.99,1497.27 1212.08,1483.31C1237.17,1471.27 1269,1430.25 1284.01,1412.16C1284.23,1411.89 1285.87,1408.8 1286.07,1408.54C1286.83,1407.64 1286.63,1395.67 1286.45,1394.73C1285.74,1391.02 1283.57,1381.34 1282.6,1379.9C1257.83,1343.24 1274,1308.98 1310.66,1284.22C1347.32,1259.45 1397.19,1269.11 1421.95,1305.77C1446.72,1342.43 1437.06,1392.3 1400.4,1417.07C1371.85,1436.36 1332.96,1397.12 1308.81,1415.8C1285.26,1434.01 1245.46,1471.67 1227.88,1500.31C1211.28,1527.35 1263.19,1562.68 1263.19,1600.65C1263.19,1689.13 1191.35,1760.97 1102.87,1760.97C1032.43,1760.97 994.382,1666.46 951.041,1652.24C915.975,1640.73 886.847,1661.51 862.15,1666.75C854.9,1668.29 846.544,1680.85 846.544,1682.59C846.544,1726.83 807.071,1760.97 762.828,1760.97C718.586,1760.97 682.667,1725.05 682.667,1680.81C682.667,1636.57 718.586,1600.65 762.828,1600.65C797.285,1600.65 807.865,1648.15 838.017,1652.97C868.411,1657.83 905.116,1639.85 922.538,1631.13C931.263,1626.76 939.658,1611.71 942.545,1600.65C957.338,1543.96 1018.32,1510.05 1020.99,1462.81C1023.67,1415.56 969.583,1341.34 958.578,1317.18C958.07,1316.07 956.176,1317.64 954.961,1317.83C950.914,1318.46 946.768,1318.79 942.545,1318.79C911.802,1318.79 898.714,1270.67 871.632,1276.02C814.892,1287.22 660.558,1356.88 616.422,1382.97C603.488,1390.62 611.556,1421.26 611.556,1440.32C611.556,1528.81 539.717,1600.65 451.232,1600.65C362.748,1600.65 290.909,1528.81 290.909,1440.32C290.909,1373.61 379.516,1339.2 389.766,1292.22C399.636,1246.99 358.977,1180.73 352.413,1158.44ZM544.204,1309.73C537.417,1335.46 570.752,1380.04 595.691,1370.75C647.932,1351.29 807.471,1279.21 854.002,1263.79C861.041,1261.45 873.23,1230 873.23,1222.36C873.23,1201.73 871.015,1191.04 864.877,1172.89C854.943,1143.52 832.752,1068.86 802.779,1062.38C778.069,1057.04 761.964,1050.97 736.995,1050.97C716.749,1050.97 699.594,1055.77 675.627,1067.68C631.043,1089.84 557.527,1259.22 544.204,1309.73Z" style="fill:rgb(86,153,80);"/>
                </g>
                <g transform="matrix(1.31248,-6.93889e-18,-0.0058278,1.31271,-35.0723,-838.811)">
                    <path d="M352.413,1158.44C352.222,1157.79 351.062,1158.46 350.384,1158.46C306.141,1158.46 270.222,1122.55 270.222,1078.3C270.222,1034.06 306.141,998.141 350.384,998.141C394.626,998.141 430.545,1034.06 430.545,1078.3C430.545,1110.17 386.169,1122.16 384.954,1150.64C383.5,1184.7 410.779,1261.13 421.825,1282.7C426.314,1291.46 449.865,1306.57 459.909,1306.57C478.602,1306.57 493.366,1303.24 504.562,1289.1C535.451,1250.09 625.203,1107.82 636.571,1045.97C645.187,999.083 572.768,970.239 572.768,917.98C572.768,829.495 644.606,757.657 733.091,757.657C821.576,757.657 893.414,829.495 893.414,917.98C893.414,963.532 838.327,993.52 843.828,1033.87C849.329,1074.22 909.97,1139.32 926.423,1160.09C929.777,1164.32 939.971,1160.07 949.831,1159.53C994.007,1157.1 1022.71,1194.38 1022.71,1238.63C1022.71,1264.05 988.818,1278.44 992.371,1301.41C997.757,1336.24 1036.61,1424.44 1055.03,1447.6C1065.07,1460.22 1086.21,1440.32 1102.87,1440.32C1145.05,1440.32 1182.99,1497.27 1212.08,1483.31C1237.17,1471.27 1269,1430.25 1284.01,1412.16C1284.23,1411.89 1285.87,1408.8 1286.07,1408.54C1286.83,1407.64 1286.63,1395.67 1286.45,1394.73C1285.74,1391.02 1283.57,1381.34 1282.6,1379.9C1257.83,1343.24 1274,1308.98 1310.66,1284.22C1347.32,1259.45 1397.19,1269.11 1421.95,1305.77C1446.72,1342.43 1437.06,1392.3 1400.4,1417.07C1371.85,1436.36 1332.96,1397.12 1308.81,1415.8C1285.26,1434.01 1245.46,1471.67 1227.88,1500.31C1211.28,1527.35 1263.19,1562.68 1263.19,1600.65C1263.19,1689.13 1191.35,1760.97 1102.87,1760.97C1032.43,1760.97 994.382,1666.46 951.041,1652.24C915.975,1640.73 886.847,1661.51 862.15,1666.75C854.9,1668.29 846.544,1680.85 846.544,1682.59C846.544,1726.83 807.071,1760.97 762.828,1760.97C718.586,1760.97 682.667,1725.05 682.667,1680.81C682.667,1636.57 718.586,1600.65 762.828,1600.65C797.285,1600.65 807.865,1648.15 838.017,1652.97C868.411,1657.83 905.116,1639.85 922.538,1631.13C931.263,1626.76 939.658,1611.71 942.545,1600.65C957.338,1543.96 1018.32,1510.05 1020.99,1462.81C1023.67,1415.56 969.583,1341.34 958.578,1317.18C958.07,1316.07 956.176,1317.64 954.961,1317.83C950.914,1318.46 946.768,1318.79 942.545,1318.79C911.802,1318.79 898.714,1270.67 871.632,1276.02C814.892,1287.22 660.558,1356.88 616.422,1382.97C603.488,1390.62 611.556,1421.26 611.556,1440.32C611.556,1528.81 539.717,1600.65 451.232,1600.65C362.748,1600.65 290.909,1528.81 290.909,1440.32C290.909,1373.61 379.516,1339.2 389.766,1292.22C399.636,1246.99 358.977,1180.73 352.413,1158.44ZM544.204,1309.73C537.417,1335.46 570.752,1380.04 595.691,1370.75C647.932,1351.29 807.471,1279.21 854.002,1263.79C861.041,1261.45 873.23,1230 873.23,1222.36C873.23,1201.73 871.015,1191.04 864.877,1172.89C854.943,1143.52 832.752,1068.86 802.779,1062.38C778.069,1057.04 761.964,1050.97 736.995,1050.97C716.749,1050.97 699.594,1055.77 675.627,1067.68C631.043,1089.84 557.527,1259.22 544.204,1309.73Z" style="fill:rgb(98,175,91);"/>
                </g>
                <g transform="matrix(1.31243,-1.38778e-17,-0.00703624,1.31277,-25.0452,-852.355)">
                    <path d="M352.413,1158.44C352.222,1157.79 351.062,1158.46 350.384,1158.46C306.141,1158.46 270.222,1122.55 270.222,1078.3C270.222,1034.06 306.141,998.141 350.384,998.141C394.626,998.141 430.545,1034.06 430.545,1078.3C430.545,1110.17 386.169,1122.16 384.954,1150.64C383.5,1184.7 410.779,1261.13 421.825,1282.7C426.314,1291.46 449.865,1306.57 459.909,1306.57C478.602,1306.57 493.366,1303.24 504.562,1289.1C535.451,1250.09 625.203,1107.82 636.571,1045.97C645.187,999.083 572.768,970.239 572.768,917.98C572.768,829.495 644.606,757.657 733.091,757.657C821.576,757.657 893.414,829.495 893.414,917.98C893.414,963.532 838.327,993.52 843.828,1033.87C849.329,1074.22 909.97,1139.32 926.423,1160.09C929.777,1164.32 939.971,1160.07 949.831,1159.53C994.007,1157.1 1022.71,1194.38 1022.71,1238.63C1022.71,1264.05 988.818,1278.44 992.371,1301.41C997.757,1336.24 1036.61,1424.44 1055.03,1447.6C1065.07,1460.22 1086.21,1440.32 1102.87,1440.32C1145.05,1440.32 1182.99,1497.27 1212.08,1483.31C1237.17,1471.27 1269,1430.25 1284.01,1412.16C1284.23,1411.89 1285.87,1408.8 1286.07,1408.54C1286.83,1407.64 1286.63,1395.67 1286.45,1394.73C1285.74,1391.02 1283.57,1381.34 1282.6,1379.9C1257.83,1343.24 1274,1308.98 1310.66,1284.22C1347.32,1259.45 1397.19,1269.11 1421.95,1305.77C1446.72,1342.43 1437.06,1392.3 1400.4,1417.07C1371.85,1436.36 1332.96,1397.12 1308.81,1415.8C1285.26,1434.01 1245.46,1471.67 1227.88,1500.31C1211.28,1527.35 1263.19,1562.68 1263.19,1600.65C1263.19,1689.13 1191.35,1760.97 1102.87,1760.97C1032.43,1760.97 994.382,1666.46 951.041,1652.24C915.975,1640.73 886.847,1661.51 862.15,1666.75C854.9,1668.29 846.544,1680.85 846.544,1682.59C846.544,1726.83 807.071,1760.97 762.828,1760.97C718.586,1760.97 682.667,1725.05 682.667,1680.81C682.667,1636.57 718.586,1600.65 762.828,1600.65C797.285,1600.65 807.865,1648.15 838.017,1652.97C868.411,1657.83 905.116,1639.85 922.538,1631.13C931.263,1626.76 939.658,1611.71 942.545,1600.65C957.338,1543.96 1018.32,1510.05 1020.99,1462.81C1023.67,1415.56 969.583,1341.34 958.578,1317.18C958.07,1316.07 956.176,1317.64 954.961,1317.83C950.914,1318.46 946.768,1318.79 942.545,1318.79C911.802,1318.79 898.714,1270.67 871.632,1276.02C814.892,1287.22 660.558,1356.88 616.422,1382.97C603.488,1390.62 611.556,1421.26 611.556,1440.32C611.556,1528.81 539.717,1600.65 451.232,1600.65C362.748,1600.65 290.909,1528.81 290.909,1440.32C290.909,1373.61 379.516,1339.2 389.766,1292.22C399.636,1246.99 358.977,1180.73 352.413,1158.44ZM544.204,1309.73C537.417,1335.46 570.752,1380.04 595.691,1370.75C647.932,1351.29 807.471,1279.21 854.002,1263.79C861.041,1261.45 873.23,1230 873.23,1222.36C873.23,1201.73 871.015,1191.04 864.877,1172.89C854.943,1143.52 832.752,1068.86 802.779,1062.38C778.069,1057.04 761.964,1050.97 736.995,1050.97C716.749,1050.97 699.594,1055.77 675.627,1067.68C631.043,1089.84 557.527,1259.22 544.204,1309.73Z" style="fill:rgb(134,186,129);"/>
                </g>
            </g>
            <g>
                <g transform="matrix(0.844333,0,0,1.72965,-249.218,-1446.93)">
                    <path d="M939.529,1755.88C940.027,1753.61 941.37,1746.5 932.425,1745.37C922.246,1744.09 884.134,1741.19 876.664,1746.15C871.81,1749.37 872.316,1758.53 866.864,1760.4C859.964,1762.78 832.763,1770.64 835.264,1760.4C838.164,1748.54 874.297,1700.78 884.264,1689.23C888.17,1684.71 890.422,1678.49 890.548,1678.13C894.621,1666.5 892.228,1630.28 884.961,1618.48C877.694,1606.69 848.628,1620.76 841.361,1618.48C837.014,1617.12 836.82,1605.18 841.361,1604.82C869.861,1602.54 983.861,1600.1 1012.36,1604.82C1021.67,1606.36 1003.82,1629.12 1012.36,1633.13C1022.43,1637.85 1062.69,1637.85 1072.76,1633.13C1081.31,1629.12 1067.33,1609.54 1072.76,1604.82C1078.19,1600.1 1100.01,1595.36 1105.36,1604.82C1110.79,1614.42 1099.83,1652.82 1105.36,1662.42C1110.89,1672.01 1133.04,1672.01 1138.56,1662.42C1144.09,1652.82 1121.52,1613.66 1138.56,1604.82C1157.06,1595.22 1231.06,1602.55 1249.56,1604.82C1254.05,1605.37 1254.02,1617.61 1249.56,1618.39C1236.53,1620.65 1184.39,1615.86 1171.36,1618.39C1166.41,1619.35 1166.44,1632.42 1171.36,1633.52C1182.69,1636.04 1228.03,1631.4 1239.36,1633.52C1243.52,1634.3 1243.52,1645.43 1239.36,1646.21C1228.03,1648.33 1182.69,1643.51 1171.36,1646.21C1166.11,1647.46 1166.07,1661.32 1171.36,1662.42C1184.39,1665.12 1236.53,1660.16 1249.56,1662.42C1254.02,1663.19 1254.07,1675.64 1249.56,1675.99C1220.09,1678.25 1102.23,1680.87 1072.76,1675.99C1063.13,1674.39 1081.55,1650.96 1072.76,1646.7C1062.69,1641.82 1022.43,1641.82 1012.36,1646.7C1003.58,1650.96 1017.83,1671.11 1012.36,1675.99C1006.89,1680.87 984.978,1685.49 979.561,1675.99C974.094,1666.4 989.894,1628.07 979.561,1618.48C969.228,1608.9 927.894,1606.69 917.561,1618.48C907.228,1630.28 914.478,1666.56 921.153,1677.93C923.685,1682.25 926.963,1686.24 929.664,1689.23C938.318,1698.83 956.893,1732.06 967.893,1741.66C974.469,1747.4 990.998,1747.54 994.604,1739.59C998.968,1729.98 985.698,1698.75 995.664,1689.13C1005.63,1679.52 1036.22,1683.93 1055.46,1689.13C1077.23,1695.02 1120.82,1714.49 1126.16,1721.56C1126.55,1722.08 1127.2,1723.08 1127.23,1724.14C1127.25,1725.26 1126.87,1725.81 1125.61,1727.49C1120.16,1734.81 1081.18,1754.59 1055.46,1760.4C1029.5,1766.28 1020.65,1756.78 987.023,1761.01C980.434,1761.84 964.955,1768.23 963.825,1774.25C960.27,1793.21 966.24,1822.82 970.464,1831.86C975.179,1841.94 998.298,1841.46 1003.86,1831.86C1009.43,1822.26 985.047,1778.07 1003.86,1774.25C1051.16,1764.65 1237.56,1766.17 1287.66,1774.25C1304.56,1776.98 1301.26,1813.39 1304.46,1822.78C1305.34,1825.35 1306.23,1829.29 1306.86,1830.59C1307.07,1831.01 1308.07,1831.01 1308.26,1830.59C1312.6,1821.2 1322.76,1783.64 1332.86,1774.25C1341.65,1766.08 1360.09,1766.07 1368.86,1774.25C1378.93,1783.64 1388.93,1821.2 1393.26,1830.59C1393.49,1831.07 1394.6,1831.05 1394.86,1830.59C1395.5,1829.46 1396.32,1826.09 1397.06,1823.85C1400.16,1814.46 1405.1,1782.52 1413.46,1774.25C1421.48,1766.34 1445.52,1764.65 1447.26,1774.25C1449.01,1783.85 1420.18,1822.26 1423.96,1831.86C1427.73,1841.46 1464.01,1835.48 1469.89,1831.86C1475.78,1828.23 1470.28,1821.93 1470,1815.01C1469.77,1809.4 1469.49,1806.93 1472.34,1801.53C1476.65,1793.37 1487.06,1773.38 1530.46,1773.38C1537.08,1773.38 1542.93,1774.22 1549.18,1774.25C1576.68,1774.4 1662.42,1770.46 1695.46,1774.25C1714.26,1776.41 1747.46,1783.14 1747.46,1797C1747.46,1807.64 1716.1,1811.47 1714.06,1817.7C1712.03,1823.93 1726.6,1831.99 1735.26,1834.4C1745.26,1837.18 1770.41,1846.8 1774.06,1834.4C1780.53,1812.47 1778.02,1724.74 1774.06,1702.8C1772.66,1695.02 1756.22,1697.52 1750.33,1702.8C1739.63,1712.4 1723.94,1750.8 1709.86,1760.4C1697.75,1768.67 1677.57,1769.25 1665.86,1760.4C1650.16,1748.54 1617.96,1701.09 1615.66,1689.23C1613.36,1677.37 1642.37,1681.93 1652.06,1689.23C1663.5,1697.84 1678.43,1731.51 1684.26,1740.88C1685.21,1742.4 1686.36,1744.7 1687.06,1745.47C1687.38,1745.81 1688.16,1745.82 1688.46,1745.47C1689.13,1744.7 1690.13,1742.37 1691.06,1740.88C1696.93,1731.51 1703.96,1694.35 1723.66,1689.23C1756.83,1680.62 1868.95,1680.17 1890.06,1689.23C1899.75,1693.39 1905.9,1698.49 1890.06,1702.8C1877.98,1706.09 1823.31,1698.85 1811.86,1702.8C1801.22,1706.48 1800.16,1714.45 1811.86,1717.93C1822.5,1721.1 1868.51,1715.84 1879.86,1717.93C1892.3,1720.23 1889.2,1727.58 1879.86,1730.63C1869.78,1733.92 1826.44,1726.72 1817.43,1731.02C1805.39,1736.78 1798.84,1741.17 1811.86,1746.83C1822.43,1751.43 1877.65,1743.86 1890.06,1746.83C1904.87,1750.39 1903.84,1759.68 1890.06,1760.4C1875.53,1761.17 1820.73,1752.58 1806.86,1760.4C1793.24,1768.09 1797.63,1805.04 1806.86,1807.35C1816.1,1809.66 1846.36,1779.77 1862.26,1774.25C1874.86,1769.88 1904.46,1769.23 1902.26,1774.25C1900.06,1779.28 1848.73,1792.56 1849.06,1804.42C1849.4,1816.28 1901.66,1838.59 1904.26,1845.43C1906.86,1852.26 1877.05,1849.99 1864.66,1845.43C1851.63,1840.63 1835.7,1819.72 1826.06,1816.62C1819.16,1814.41 1810.06,1822.08 1806.86,1826.88C1803.66,1831.68 1812.93,1844.25 1806.86,1845.43C1790.9,1848.52 1732.16,1849.64 1711.06,1845.43C1698.04,1842.83 1688.93,1824.35 1680.26,1820.14C1673.91,1817.05 1662.6,1815.93 1659.06,1820.14C1655.53,1824.35 1664.53,1841.21 1659.06,1845.43C1653.6,1849.64 1631.5,1855.03 1626.26,1845.43C1620.8,1835.4 1632.81,1795.31 1626.26,1785.28C1619.72,1775.26 1591.07,1781.2 1586.97,1785.28C1582.87,1789.37 1587.11,1796.11 1589.82,1800.2C1592.02,1803.53 1595.91,1812.49 1593.92,1816.57C1589.17,1826.31 1577.46,1846.4 1530.46,1846.4C1523.19,1846.4 1521.87,1846.71 1507.96,1847.18C1481.92,1848.05 1399.93,1852.78 1373.86,1845.43C1358.32,1841.04 1357.6,1809.61 1353.86,1801.3C1353.01,1799.4 1352.06,1796.5 1351.46,1795.54C1351.25,1795.2 1350.48,1795.2 1350.26,1795.54C1349.66,1796.5 1348.72,1799.4 1347.86,1801.3C1344.13,1809.61 1338.63,1838.07 1327.86,1845.43C1317.1,1852.78 1294.65,1854.98 1283.26,1845.43C1271.85,1835.84 1272.68,1797.51 1259.35,1787.92C1246.02,1778.34 1212.61,1778.34 1203.26,1787.92C1193.92,1797.51 1208.7,1835.84 1203.26,1845.43C1197.9,1854.88 1176.02,1854.88 1170.66,1845.43C1165.23,1835.84 1181.07,1797.51 1170.66,1787.92C1160.26,1778.34 1129.07,1783.94 1112.94,1784.01C1104.16,1784.05 1101.27,1784.04 1094.66,1784.37C1082.78,1784.97 1048.59,1785.3 1036.66,1787.82C1031.73,1788.87 1031.74,1801.86 1036.66,1802.96C1048,1805.48 1093.33,1800.84 1104.66,1802.96C1108.82,1803.73 1108.82,1814.87 1104.66,1815.65C1093.33,1817.76 1048,1812.95 1036.66,1815.65C1031.41,1816.9 1031.37,1830.76 1036.66,1831.86C1049.7,1834.56 1101.83,1829.59 1114.86,1831.86C1119.32,1832.63 1119.38,1845.09 1114.86,1845.43C1084.3,1847.69 970.664,1852.96 931.464,1845.43C908.959,1841.1 888.731,1808.15 879.664,1800.22C878.786,1799.46 877.664,1798.27 877.064,1797.88C876.785,1797.7 876.071,1797.55 876.064,1797.88C875.898,1805.81 881.264,1837.5 876.064,1845.43C870.864,1853.35 849.04,1854.95 844.864,1845.43C839.664,1833.56 837.898,1786.12 844.864,1774.25C851.831,1762.39 874.159,1768.11 886.664,1774.25C901.764,1781.67 926.864,1810.85 935.464,1818.77C936.475,1819.7 937.631,1821.3 938.264,1821.8C938.525,1822.01 939.26,1822.13 939.264,1821.8C939.431,1809.82 936.847,1768.1 939.529,1755.88ZM884.264,1733.95C889.331,1737.49 923.998,1737.49 929.064,1733.95C934.131,1730.4 918.298,1718.05 914.664,1712.66C912.188,1708.99 908.698,1703.47 907.264,1701.63C907.018,1701.32 906.31,1701.32 906.064,1701.63C904.631,1703.47 901.141,1708.99 898.664,1712.66C895.031,1718.05 879.198,1730.4 884.264,1733.95ZM1028.46,1746.83C1032.96,1754.19 1046.76,1749.12 1055.46,1746.83C1066,1744.07 1085.63,1734.83 1091.66,1730.24C1094.57,1728.03 1094.57,1721.51 1091.66,1719.3C1085.63,1714.71 1066,1705.47 1055.46,1702.7C1046.76,1700.42 1032.96,1695.35 1028.46,1702.7C1023.96,1710.06 1023.96,1739.48 1028.46,1746.83ZM1530.46,1832.54C1553.46,1832.54 1561.13,1820.16 1567.26,1815.45C1570.21,1813.2 1570.21,1806.58 1567.26,1804.32C1561.13,1799.62 1555.26,1787.24 1530.46,1787.24C1505.66,1787.24 1499.8,1799.62 1493.66,1804.32C1490.72,1806.58 1490.72,1813.2 1493.66,1815.45C1499.8,1820.16 1507.46,1832.54 1530.46,1832.54ZM1689.66,1787.92C1680.66,1786.49 1664.16,1784.55 1659.06,1787.92C1653.96,1791.29 1653.96,1804.76 1659.06,1808.13C1664.16,1811.5 1680.66,1809.56 1689.66,1808.13C1697.87,1806.83 1709.16,1801.48 1713.06,1799.54C1713.97,1799.09 1713.97,1796.96 1713.06,1796.51C1709.16,1794.58 1697.87,1789.23 1689.66,1787.92ZM1313.95,1760.02C1300.64,1764.08 1254.55,1766.87 1245.46,1760.4C1236.59,1754.09 1241.31,1747.3 1235.66,1746.15C1224.03,1743.78 1187.3,1743.78 1175.66,1746.15C1170.02,1747.3 1171.32,1758.53 1165.86,1760.4C1158.96,1762.78 1131.76,1770.64 1134.26,1760.4C1137.16,1748.54 1167.53,1701.09 1183.26,1689.23C1195.35,1680.12 1216.13,1680.76 1228.66,1689.23C1242.87,1698.83 1257.48,1737.23 1268.48,1746.83C1275.06,1752.57 1291.05,1754.78 1294.66,1746.83C1299.03,1737.23 1275.8,1692.83 1294.66,1689.23C1344.96,1679.63 1546.16,1677.37 1596.46,1689.23C1619.56,1694.68 1601.93,1748.54 1596.46,1760.4C1591.89,1770.33 1569.08,1769.9 1563.66,1760.4C1558.2,1750.82 1574,1712.48 1563.66,1702.9C1553.33,1693.32 1512,1693.32 1501.66,1702.9C1491.33,1712.48 1507.1,1750.82 1501.66,1760.4C1496.31,1769.86 1474.42,1769.86 1469.06,1760.4C1463.63,1750.82 1478.55,1712.48 1469.06,1702.9C1459.58,1693.32 1419.7,1698.17 1418,1702.77C1416.2,1707.63 1415.86,1709.52 1415.86,1713.44C1415.86,1728.09 1380.48,1731.29 1364.31,1733.71C1344.61,1736.66 1339.24,1733.98 1327.46,1737.75C1319.5,1740.31 1329.44,1755.29 1313.95,1760.02ZM1358.06,1702.9C1349.06,1701.31 1332.56,1699.21 1327.46,1702.9C1322.36,1706.59 1322.36,1721.37 1327.46,1725.06C1332.56,1728.76 1349.06,1726.66 1358.06,1725.06C1366.36,1723.59 1379.73,1719.93 1383.55,1717.8C1387.08,1715.83 1385.78,1712.3 1382.67,1709.48C1379.92,1706.99 1366.36,1704.37 1358.06,1702.9ZM1183.26,1733.95C1188.33,1737.49 1223,1737.49 1228.06,1733.95C1233.13,1730.4 1217.3,1718.05 1213.66,1712.66C1211.19,1708.99 1211.54,1707.71 1210.33,1705.83C1207.28,1701.09 1201.54,1704 1200.83,1706.2C1200.21,1708.15 1200.14,1708.99 1197.66,1712.66C1194.03,1718.05 1178.2,1730.4 1183.26,1733.95Z" style="fill:rgb(95,127,92);"/>
                </g>
                <g transform="matrix(0.844333,0,0,1.72965,-246.218,-1449.93)">
                    <path d="M939.529,1755.88C940.027,1753.61 941.37,1746.5 932.425,1745.37C922.246,1744.09 884.134,1741.19 876.664,1746.15C871.81,1749.37 872.316,1758.53 866.864,1760.4C859.964,1762.78 832.763,1770.64 835.264,1760.4C838.164,1748.54 874.297,1700.78 884.264,1689.23C888.17,1684.71 890.422,1678.49 890.548,1678.13C894.621,1666.5 892.228,1630.28 884.961,1618.48C877.694,1606.69 848.628,1620.76 841.361,1618.48C837.014,1617.12 836.82,1605.18 841.361,1604.82C869.861,1602.54 983.861,1600.1 1012.36,1604.82C1021.67,1606.36 1003.82,1629.12 1012.36,1633.13C1022.43,1637.85 1062.69,1637.85 1072.76,1633.13C1081.31,1629.12 1067.33,1609.54 1072.76,1604.82C1078.19,1600.1 1100.01,1595.36 1105.36,1604.82C1110.79,1614.42 1099.83,1652.82 1105.36,1662.42C1110.89,1672.01 1133.04,1672.01 1138.56,1662.42C1144.09,1652.82 1121.52,1613.66 1138.56,1604.82C1157.06,1595.22 1231.06,1602.55 1249.56,1604.82C1254.05,1605.37 1254.02,1617.61 1249.56,1618.39C1236.53,1620.65 1184.39,1615.86 1171.36,1618.39C1166.41,1619.35 1166.44,1632.42 1171.36,1633.52C1182.69,1636.04 1228.03,1631.4 1239.36,1633.52C1243.52,1634.3 1243.52,1645.43 1239.36,1646.21C1228.03,1648.33 1182.69,1643.51 1171.36,1646.21C1166.11,1647.46 1166.07,1661.32 1171.36,1662.42C1184.39,1665.12 1236.53,1660.16 1249.56,1662.42C1254.02,1663.19 1254.07,1675.64 1249.56,1675.99C1220.09,1678.25 1102.23,1680.87 1072.76,1675.99C1063.13,1674.39 1081.55,1650.96 1072.76,1646.7C1062.69,1641.82 1022.43,1641.82 1012.36,1646.7C1003.58,1650.96 1017.83,1671.11 1012.36,1675.99C1006.89,1680.87 984.978,1685.49 979.561,1675.99C974.094,1666.4 989.894,1628.07 979.561,1618.48C969.228,1608.9 927.894,1606.69 917.561,1618.48C907.228,1630.28 914.478,1666.56 921.153,1677.93C923.685,1682.25 926.963,1686.24 929.664,1689.23C938.318,1698.83 956.893,1732.06 967.893,1741.66C974.469,1747.4 990.998,1747.54 994.604,1739.59C998.968,1729.98 985.698,1698.75 995.664,1689.13C1005.63,1679.52 1036.22,1683.93 1055.46,1689.13C1077.23,1695.02 1120.82,1714.49 1126.16,1721.56C1126.55,1722.08 1127.2,1723.08 1127.23,1724.14C1127.25,1725.26 1126.87,1725.81 1125.61,1727.49C1120.16,1734.81 1081.18,1754.59 1055.46,1760.4C1029.5,1766.28 1020.65,1756.78 987.023,1761.01C980.434,1761.84 964.955,1768.23 963.825,1774.25C960.27,1793.21 966.24,1822.82 970.464,1831.86C975.179,1841.94 998.298,1841.46 1003.86,1831.86C1009.43,1822.26 985.047,1778.07 1003.86,1774.25C1051.16,1764.65 1237.56,1766.17 1287.66,1774.25C1304.56,1776.98 1301.26,1813.39 1304.46,1822.78C1305.34,1825.35 1306.23,1829.29 1306.86,1830.59C1307.07,1831.01 1308.07,1831.01 1308.26,1830.59C1312.6,1821.2 1322.76,1783.64 1332.86,1774.25C1341.65,1766.08 1360.09,1766.07 1368.86,1774.25C1378.93,1783.64 1388.93,1821.2 1393.26,1830.59C1393.49,1831.07 1394.6,1831.05 1394.86,1830.59C1395.5,1829.46 1396.32,1826.09 1397.06,1823.85C1400.16,1814.46 1405.1,1782.52 1413.46,1774.25C1421.48,1766.34 1445.52,1764.65 1447.26,1774.25C1449.01,1783.85 1420.18,1822.26 1423.96,1831.86C1427.73,1841.46 1464.01,1835.48 1469.89,1831.86C1475.78,1828.23 1470.28,1821.93 1470,1815.01C1469.77,1809.4 1469.49,1806.93 1472.34,1801.53C1476.65,1793.37 1487.06,1773.38 1530.46,1773.38C1537.08,1773.38 1542.93,1774.22 1549.18,1774.25C1576.68,1774.4 1662.42,1770.46 1695.46,1774.25C1714.26,1776.41 1747.46,1783.14 1747.46,1797C1747.46,1807.64 1716.1,1811.47 1714.06,1817.7C1712.03,1823.93 1726.6,1831.99 1735.26,1834.4C1745.26,1837.18 1770.41,1846.8 1774.06,1834.4C1780.53,1812.47 1778.02,1724.74 1774.06,1702.8C1772.66,1695.02 1756.22,1697.52 1750.33,1702.8C1739.63,1712.4 1723.94,1750.8 1709.86,1760.4C1697.75,1768.67 1677.57,1769.25 1665.86,1760.4C1650.16,1748.54 1617.96,1701.09 1615.66,1689.23C1613.36,1677.37 1642.37,1681.93 1652.06,1689.23C1663.5,1697.84 1678.43,1731.51 1684.26,1740.88C1685.21,1742.4 1686.36,1744.7 1687.06,1745.47C1687.38,1745.81 1688.16,1745.82 1688.46,1745.47C1689.13,1744.7 1690.13,1742.37 1691.06,1740.88C1696.93,1731.51 1703.96,1694.35 1723.66,1689.23C1756.83,1680.62 1868.95,1680.17 1890.06,1689.23C1899.75,1693.39 1905.9,1698.49 1890.06,1702.8C1877.98,1706.09 1823.31,1698.85 1811.86,1702.8C1801.22,1706.48 1800.16,1714.45 1811.86,1717.93C1822.5,1721.1 1868.51,1715.84 1879.86,1717.93C1892.3,1720.23 1889.2,1727.58 1879.86,1730.63C1869.78,1733.92 1826.44,1726.72 1817.43,1731.02C1805.39,1736.78 1798.84,1741.17 1811.86,1746.83C1822.43,1751.43 1877.65,1743.86 1890.06,1746.83C1904.87,1750.39 1903.84,1759.68 1890.06,1760.4C1875.53,1761.17 1820.73,1752.58 1806.86,1760.4C1793.24,1768.09 1797.63,1805.04 1806.86,1807.35C1816.1,1809.66 1846.36,1779.77 1862.26,1774.25C1874.86,1769.88 1904.46,1769.23 1902.26,1774.25C1900.06,1779.28 1848.73,1792.56 1849.06,1804.42C1849.4,1816.28 1901.66,1838.59 1904.26,1845.43C1906.86,1852.26 1877.05,1849.99 1864.66,1845.43C1851.63,1840.63 1835.7,1819.72 1826.06,1816.62C1819.16,1814.41 1810.06,1822.08 1806.86,1826.88C1803.66,1831.68 1812.93,1844.25 1806.86,1845.43C1790.9,1848.52 1732.16,1849.64 1711.06,1845.43C1698.04,1842.83 1688.93,1824.35 1680.26,1820.14C1673.91,1817.05 1662.6,1815.93 1659.06,1820.14C1655.53,1824.35 1664.53,1841.21 1659.06,1845.43C1653.6,1849.64 1631.5,1855.03 1626.26,1845.43C1620.8,1835.4 1632.81,1795.31 1626.26,1785.28C1619.72,1775.26 1591.07,1781.2 1586.97,1785.28C1582.87,1789.37 1587.11,1796.11 1589.82,1800.2C1592.02,1803.53 1595.91,1812.49 1593.92,1816.57C1589.17,1826.31 1577.46,1846.4 1530.46,1846.4C1523.19,1846.4 1521.87,1846.71 1507.96,1847.18C1481.92,1848.05 1399.93,1852.78 1373.86,1845.43C1358.32,1841.04 1357.6,1809.61 1353.86,1801.3C1353.01,1799.4 1352.06,1796.5 1351.46,1795.54C1351.25,1795.2 1350.48,1795.2 1350.26,1795.54C1349.66,1796.5 1348.72,1799.4 1347.86,1801.3C1344.13,1809.61 1338.63,1838.07 1327.86,1845.43C1317.1,1852.78 1294.65,1854.98 1283.26,1845.43C1271.85,1835.84 1272.68,1797.51 1259.35,1787.92C1246.02,1778.34 1212.61,1778.34 1203.26,1787.92C1193.92,1797.51 1208.7,1835.84 1203.26,1845.43C1197.9,1854.88 1176.02,1854.88 1170.66,1845.43C1165.23,1835.84 1181.07,1797.51 1170.66,1787.92C1160.26,1778.34 1129.07,1783.94 1112.94,1784.01C1104.16,1784.05 1101.27,1784.04 1094.66,1784.37C1082.78,1784.97 1048.59,1785.3 1036.66,1787.82C1031.73,1788.87 1031.74,1801.86 1036.66,1802.96C1048,1805.48 1093.33,1800.84 1104.66,1802.96C1108.82,1803.73 1108.82,1814.87 1104.66,1815.65C1093.33,1817.76 1048,1812.95 1036.66,1815.65C1031.41,1816.9 1031.37,1830.76 1036.66,1831.86C1049.7,1834.56 1101.83,1829.59 1114.86,1831.86C1119.32,1832.63 1119.38,1845.09 1114.86,1845.43C1084.3,1847.69 970.664,1852.96 931.464,1845.43C908.959,1841.1 888.731,1808.15 879.664,1800.22C878.786,1799.46 877.664,1798.27 877.064,1797.88C876.785,1797.7 876.071,1797.55 876.064,1797.88C875.898,1805.81 881.264,1837.5 876.064,1845.43C870.864,1853.35 849.04,1854.95 844.864,1845.43C839.664,1833.56 837.898,1786.12 844.864,1774.25C851.831,1762.39 874.159,1768.11 886.664,1774.25C901.764,1781.67 926.864,1810.85 935.464,1818.77C936.475,1819.7 937.631,1821.3 938.264,1821.8C938.525,1822.01 939.26,1822.13 939.264,1821.8C939.431,1809.82 936.847,1768.1 939.529,1755.88ZM884.264,1733.95C889.331,1737.49 923.998,1737.49 929.064,1733.95C934.131,1730.4 918.298,1718.05 914.664,1712.66C912.188,1708.99 908.698,1703.47 907.264,1701.63C907.018,1701.32 906.31,1701.32 906.064,1701.63C904.631,1703.47 901.141,1708.99 898.664,1712.66C895.031,1718.05 879.198,1730.4 884.264,1733.95ZM1028.46,1746.83C1032.96,1754.19 1046.76,1749.12 1055.46,1746.83C1066,1744.07 1085.63,1734.83 1091.66,1730.24C1094.57,1728.03 1094.57,1721.51 1091.66,1719.3C1085.63,1714.71 1066,1705.47 1055.46,1702.7C1046.76,1700.42 1032.96,1695.35 1028.46,1702.7C1023.96,1710.06 1023.96,1739.48 1028.46,1746.83ZM1530.46,1832.54C1553.46,1832.54 1561.13,1820.16 1567.26,1815.45C1570.21,1813.2 1570.21,1806.58 1567.26,1804.32C1561.13,1799.62 1555.26,1787.24 1530.46,1787.24C1505.66,1787.24 1499.8,1799.62 1493.66,1804.32C1490.72,1806.58 1490.72,1813.2 1493.66,1815.45C1499.8,1820.16 1507.46,1832.54 1530.46,1832.54ZM1689.66,1787.92C1680.66,1786.49 1664.16,1784.55 1659.06,1787.92C1653.96,1791.29 1653.96,1804.76 1659.06,1808.13C1664.16,1811.5 1680.66,1809.56 1689.66,1808.13C1697.87,1806.83 1709.16,1801.48 1713.06,1799.54C1713.97,1799.09 1713.97,1796.96 1713.06,1796.51C1709.16,1794.58 1697.87,1789.23 1689.66,1787.92ZM1313.95,1760.02C1300.64,1764.08 1254.55,1766.87 1245.46,1760.4C1236.59,1754.09 1241.31,1747.3 1235.66,1746.15C1224.03,1743.78 1187.3,1743.78 1175.66,1746.15C1170.02,1747.3 1171.32,1758.53 1165.86,1760.4C1158.96,1762.78 1131.76,1770.64 1134.26,1760.4C1137.16,1748.54 1167.53,1701.09 1183.26,1689.23C1195.35,1680.12 1216.13,1680.76 1228.66,1689.23C1242.87,1698.83 1257.48,1737.23 1268.48,1746.83C1275.06,1752.57 1291.05,1754.78 1294.66,1746.83C1299.03,1737.23 1275.8,1692.83 1294.66,1689.23C1344.96,1679.63 1546.16,1677.37 1596.46,1689.23C1619.56,1694.68 1601.93,1748.54 1596.46,1760.4C1591.89,1770.33 1569.08,1769.9 1563.66,1760.4C1558.2,1750.82 1574,1712.48 1563.66,1702.9C1553.33,1693.32 1512,1693.32 1501.66,1702.9C1491.33,1712.48 1507.1,1750.82 1501.66,1760.4C1496.31,1769.86 1474.42,1769.86 1469.06,1760.4C1463.63,1750.82 1478.55,1712.48 1469.06,1702.9C1459.58,1693.32 1419.7,1698.17 1418,1702.77C1416.2,1707.63 1415.86,1709.52 1415.86,1713.44C1415.86,1728.09 1380.48,1731.29 1364.31,1733.71C1344.61,1736.66 1339.24,1733.98 1327.46,1737.75C1319.5,1740.31 1329.44,1755.29 1313.95,1760.02ZM1358.06,1702.9C1349.06,1701.31 1332.56,1699.21 1327.46,1702.9C1322.36,1706.59 1322.36,1721.37 1327.46,1725.06C1332.56,1728.76 1349.06,1726.66 1358.06,1725.06C1366.36,1723.59 1379.73,1719.93 1383.55,1717.8C1387.08,1715.83 1385.78,1712.3 1382.67,1709.48C1379.92,1706.99 1366.36,1704.37 1358.06,1702.9ZM1183.26,1733.95C1188.33,1737.49 1223,1737.49 1228.06,1733.95C1233.13,1730.4 1217.3,1718.05 1213.66,1712.66C1211.19,1708.99 1211.54,1707.71 1210.33,1705.83C1207.28,1701.09 1201.54,1704 1200.83,1706.2C1200.21,1708.15 1200.14,1708.99 1197.66,1712.66C1194.03,1718.05 1178.2,1730.4 1183.26,1733.95Z" style="fill:rgb(86,153,80);"/>
                </g>
                <g transform="matrix(0.844333,0,0,1.72965,-243.218,-1452.93)">
                    <path d="M939.529,1755.88C940.027,1753.61 941.37,1746.5 932.425,1745.37C922.246,1744.09 884.134,1741.19 876.664,1746.15C871.81,1749.37 872.316,1758.53 866.864,1760.4C859.964,1762.78 832.763,1770.64 835.264,1760.4C838.164,1748.54 874.297,1700.78 884.264,1689.23C888.17,1684.71 890.422,1678.49 890.548,1678.13C894.621,1666.5 892.228,1630.28 884.961,1618.48C877.694,1606.69 848.628,1620.76 841.361,1618.48C837.014,1617.12 836.82,1605.18 841.361,1604.82C869.861,1602.54 983.861,1600.1 1012.36,1604.82C1021.67,1606.36 1003.82,1629.12 1012.36,1633.13C1022.43,1637.85 1062.69,1637.85 1072.76,1633.13C1081.31,1629.12 1067.33,1609.54 1072.76,1604.82C1078.19,1600.1 1100.01,1595.36 1105.36,1604.82C1110.79,1614.42 1099.83,1652.82 1105.36,1662.42C1110.89,1672.01 1133.04,1672.01 1138.56,1662.42C1144.09,1652.82 1121.52,1613.66 1138.56,1604.82C1157.06,1595.22 1231.06,1602.55 1249.56,1604.82C1254.05,1605.37 1254.02,1617.61 1249.56,1618.39C1236.53,1620.65 1184.39,1615.86 1171.36,1618.39C1166.41,1619.35 1166.44,1632.42 1171.36,1633.52C1182.69,1636.04 1228.03,1631.4 1239.36,1633.52C1243.52,1634.3 1243.52,1645.43 1239.36,1646.21C1228.03,1648.33 1182.69,1643.51 1171.36,1646.21C1166.11,1647.46 1166.07,1661.32 1171.36,1662.42C1184.39,1665.12 1236.53,1660.16 1249.56,1662.42C1254.02,1663.19 1254.07,1675.64 1249.56,1675.99C1220.09,1678.25 1102.23,1680.87 1072.76,1675.99C1063.13,1674.39 1081.55,1650.96 1072.76,1646.7C1062.69,1641.82 1022.43,1641.82 1012.36,1646.7C1003.58,1650.96 1017.83,1671.11 1012.36,1675.99C1006.89,1680.87 984.978,1685.49 979.561,1675.99C974.094,1666.4 989.894,1628.07 979.561,1618.48C969.228,1608.9 927.894,1606.69 917.561,1618.48C907.228,1630.28 914.478,1666.56 921.153,1677.93C923.685,1682.25 926.963,1686.24 929.664,1689.23C938.318,1698.83 956.893,1732.06 967.893,1741.66C974.469,1747.4 990.998,1747.54 994.604,1739.59C998.968,1729.98 985.698,1698.75 995.664,1689.13C1005.63,1679.52 1036.22,1683.93 1055.46,1689.13C1077.23,1695.02 1120.82,1714.49 1126.16,1721.56C1126.55,1722.08 1127.2,1723.08 1127.23,1724.14C1127.25,1725.26 1126.87,1725.81 1125.61,1727.49C1120.16,1734.81 1081.18,1754.59 1055.46,1760.4C1029.5,1766.28 1020.65,1756.78 987.023,1761.01C980.434,1761.84 964.955,1768.23 963.825,1774.25C960.27,1793.21 966.24,1822.82 970.464,1831.86C975.179,1841.94 998.298,1841.46 1003.86,1831.86C1009.43,1822.26 985.047,1778.07 1003.86,1774.25C1051.16,1764.65 1237.56,1766.17 1287.66,1774.25C1304.56,1776.98 1301.26,1813.39 1304.46,1822.78C1305.34,1825.35 1306.23,1829.29 1306.86,1830.59C1307.07,1831.01 1308.07,1831.01 1308.26,1830.59C1312.6,1821.2 1322.76,1783.64 1332.86,1774.25C1341.65,1766.08 1360.09,1766.07 1368.86,1774.25C1378.93,1783.64 1388.93,1821.2 1393.26,1830.59C1393.49,1831.07 1394.6,1831.05 1394.86,1830.59C1395.5,1829.46 1396.32,1826.09 1397.06,1823.85C1400.16,1814.46 1405.1,1782.52 1413.46,1774.25C1421.48,1766.34 1445.52,1764.65 1447.26,1774.25C1449.01,1783.85 1420.18,1822.26 1423.96,1831.86C1427.73,1841.46 1464.01,1835.48 1469.89,1831.86C1475.78,1828.23 1470.28,1821.93 1470,1815.01C1469.77,1809.4 1469.49,1806.93 1472.34,1801.53C1476.65,1793.37 1487.06,1773.38 1530.46,1773.38C1537.08,1773.38 1542.93,1774.22 1549.18,1774.25C1576.68,1774.4 1662.42,1770.46 1695.46,1774.25C1714.26,1776.41 1747.46,1783.14 1747.46,1797C1747.46,1807.64 1716.1,1811.47 1714.06,1817.7C1712.03,1823.93 1726.6,1831.99 1735.26,1834.4C1745.26,1837.18 1770.41,1846.8 1774.06,1834.4C1780.53,1812.47 1778.02,1724.74 1774.06,1702.8C1772.66,1695.02 1756.22,1697.52 1750.33,1702.8C1739.63,1712.4 1723.94,1750.8 1709.86,1760.4C1697.75,1768.67 1677.57,1769.25 1665.86,1760.4C1650.16,1748.54 1617.96,1701.09 1615.66,1689.23C1613.36,1677.37 1642.37,1681.93 1652.06,1689.23C1663.5,1697.84 1678.43,1731.51 1684.26,1740.88C1685.21,1742.4 1686.36,1744.7 1687.06,1745.47C1687.38,1745.81 1688.16,1745.82 1688.46,1745.47C1689.13,1744.7 1690.13,1742.37 1691.06,1740.88C1696.93,1731.51 1703.96,1694.35 1723.66,1689.23C1756.83,1680.62 1868.95,1680.17 1890.06,1689.23C1899.75,1693.39 1905.9,1698.49 1890.06,1702.8C1877.98,1706.09 1823.31,1698.85 1811.86,1702.8C1801.22,1706.48 1800.16,1714.45 1811.86,1717.93C1822.5,1721.1 1868.51,1715.84 1879.86,1717.93C1892.3,1720.23 1889.2,1727.58 1879.86,1730.63C1869.78,1733.92 1826.44,1726.72 1817.43,1731.02C1805.39,1736.78 1798.84,1741.17 1811.86,1746.83C1822.43,1751.43 1877.65,1743.86 1890.06,1746.83C1904.87,1750.39 1903.84,1759.68 1890.06,1760.4C1875.53,1761.17 1820.73,1752.58 1806.86,1760.4C1793.24,1768.09 1797.63,1805.04 1806.86,1807.35C1816.1,1809.66 1846.36,1779.77 1862.26,1774.25C1874.86,1769.88 1904.46,1769.23 1902.26,1774.25C1900.06,1779.28 1848.73,1792.56 1849.06,1804.42C1849.4,1816.28 1901.66,1838.59 1904.26,1845.43C1906.86,1852.26 1877.05,1849.99 1864.66,1845.43C1851.63,1840.63 1835.7,1819.72 1826.06,1816.62C1819.16,1814.41 1810.06,1822.08 1806.86,1826.88C1803.66,1831.68 1812.93,1844.25 1806.86,1845.43C1790.9,1848.52 1732.16,1849.64 1711.06,1845.43C1698.04,1842.83 1688.93,1824.35 1680.26,1820.14C1673.91,1817.05 1662.6,1815.93 1659.06,1820.14C1655.53,1824.35 1664.53,1841.21 1659.06,1845.43C1653.6,1849.64 1631.5,1855.03 1626.26,1845.43C1620.8,1835.4 1632.81,1795.31 1626.26,1785.28C1619.72,1775.26 1591.07,1781.2 1586.97,1785.28C1582.87,1789.37 1587.11,1796.11 1589.82,1800.2C1592.02,1803.53 1595.91,1812.49 1593.92,1816.57C1589.17,1826.31 1577.46,1846.4 1530.46,1846.4C1523.19,1846.4 1521.87,1846.71 1507.96,1847.18C1481.92,1848.05 1399.93,1852.78 1373.86,1845.43C1358.32,1841.04 1357.6,1809.61 1353.86,1801.3C1353.01,1799.4 1352.06,1796.5 1351.46,1795.54C1351.25,1795.2 1350.48,1795.2 1350.26,1795.54C1349.66,1796.5 1348.72,1799.4 1347.86,1801.3C1344.13,1809.61 1338.63,1838.07 1327.86,1845.43C1317.1,1852.78 1294.65,1854.98 1283.26,1845.43C1271.85,1835.84 1272.68,1797.51 1259.35,1787.92C1246.02,1778.34 1212.61,1778.34 1203.26,1787.92C1193.92,1797.51 1208.7,1835.84 1203.26,1845.43C1197.9,1854.88 1176.02,1854.88 1170.66,1845.43C1165.23,1835.84 1181.07,1797.51 1170.66,1787.92C1160.26,1778.34 1129.07,1783.94 1112.94,1784.01C1104.16,1784.05 1101.27,1784.04 1094.66,1784.37C1082.78,1784.97 1048.59,1785.3 1036.66,1787.82C1031.73,1788.87 1031.74,1801.86 1036.66,1802.96C1048,1805.48 1093.33,1800.84 1104.66,1802.96C1108.82,1803.73 1108.82,1814.87 1104.66,1815.65C1093.33,1817.76 1048,1812.95 1036.66,1815.65C1031.41,1816.9 1031.37,1830.76 1036.66,1831.86C1049.7,1834.56 1101.83,1829.59 1114.86,1831.86C1119.32,1832.63 1119.38,1845.09 1114.86,1845.43C1084.3,1847.69 970.664,1852.96 931.464,1845.43C908.959,1841.1 888.731,1808.15 879.664,1800.22C878.786,1799.46 877.664,1798.27 877.064,1797.88C876.785,1797.7 876.071,1797.55 876.064,1797.88C875.898,1805.81 881.264,1837.5 876.064,1845.43C870.864,1853.35 849.04,1854.95 844.864,1845.43C839.664,1833.56 837.898,1786.12 844.864,1774.25C851.831,1762.39 874.159,1768.11 886.664,1774.25C901.764,1781.67 926.864,1810.85 935.464,1818.77C936.475,1819.7 937.631,1821.3 938.264,1821.8C938.525,1822.01 939.26,1822.13 939.264,1821.8C939.431,1809.82 936.847,1768.1 939.529,1755.88ZM884.264,1733.95C889.331,1737.49 923.998,1737.49 929.064,1733.95C934.131,1730.4 918.298,1718.05 914.664,1712.66C912.188,1708.99 908.698,1703.47 907.264,1701.63C907.018,1701.32 906.31,1701.32 906.064,1701.63C904.631,1703.47 901.141,1708.99 898.664,1712.66C895.031,1718.05 879.198,1730.4 884.264,1733.95ZM1028.46,1746.83C1032.96,1754.19 1046.76,1749.12 1055.46,1746.83C1066,1744.07 1085.63,1734.83 1091.66,1730.24C1094.57,1728.03 1094.57,1721.51 1091.66,1719.3C1085.63,1714.71 1066,1705.47 1055.46,1702.7C1046.76,1700.42 1032.96,1695.35 1028.46,1702.7C1023.96,1710.06 1023.96,1739.48 1028.46,1746.83ZM1530.46,1832.54C1553.46,1832.54 1561.13,1820.16 1567.26,1815.45C1570.21,1813.2 1570.21,1806.58 1567.26,1804.32C1561.13,1799.62 1555.26,1787.24 1530.46,1787.24C1505.66,1787.24 1499.8,1799.62 1493.66,1804.32C1490.72,1806.58 1490.72,1813.2 1493.66,1815.45C1499.8,1820.16 1507.46,1832.54 1530.46,1832.54ZM1689.66,1787.92C1680.66,1786.49 1664.16,1784.55 1659.06,1787.92C1653.96,1791.29 1653.96,1804.76 1659.06,1808.13C1664.16,1811.5 1680.66,1809.56 1689.66,1808.13C1697.87,1806.83 1709.16,1801.48 1713.06,1799.54C1713.97,1799.09 1713.97,1796.96 1713.06,1796.51C1709.16,1794.58 1697.87,1789.23 1689.66,1787.92ZM1313.95,1760.02C1300.64,1764.08 1254.55,1766.87 1245.46,1760.4C1236.59,1754.09 1241.31,1747.3 1235.66,1746.15C1224.03,1743.78 1187.3,1743.78 1175.66,1746.15C1170.02,1747.3 1171.32,1758.53 1165.86,1760.4C1158.96,1762.78 1131.76,1770.64 1134.26,1760.4C1137.16,1748.54 1167.53,1701.09 1183.26,1689.23C1195.35,1680.12 1216.13,1680.76 1228.66,1689.23C1242.87,1698.83 1257.48,1737.23 1268.48,1746.83C1275.06,1752.57 1291.05,1754.78 1294.66,1746.83C1299.03,1737.23 1275.8,1692.83 1294.66,1689.23C1344.96,1679.63 1546.16,1677.37 1596.46,1689.23C1619.56,1694.68 1601.93,1748.54 1596.46,1760.4C1591.89,1770.33 1569.08,1769.9 1563.66,1760.4C1558.2,1750.82 1574,1712.48 1563.66,1702.9C1553.33,1693.32 1512,1693.32 1501.66,1702.9C1491.33,1712.48 1507.1,1750.82 1501.66,1760.4C1496.31,1769.86 1474.42,1769.86 1469.06,1760.4C1463.63,1750.82 1478.55,1712.48 1469.06,1702.9C1459.58,1693.32 1419.7,1698.17 1418,1702.77C1416.2,1707.63 1415.86,1709.52 1415.86,1713.44C1415.86,1728.09 1380.48,1731.29 1364.31,1733.71C1344.61,1736.66 1339.24,1733.98 1327.46,1737.75C1319.5,1740.31 1329.44,1755.29 1313.95,1760.02ZM1358.06,1702.9C1349.06,1701.31 1332.56,1699.21 1327.46,1702.9C1322.36,1706.59 1322.36,1721.37 1327.46,1725.06C1332.56,1728.76 1349.06,1726.66 1358.06,1725.06C1366.36,1723.59 1379.73,1719.93 1383.55,1717.8C1387.08,1715.83 1385.78,1712.3 1382.67,1709.48C1379.92,1706.99 1366.36,1704.37 1358.06,1702.9ZM1183.26,1733.95C1188.33,1737.49 1223,1737.49 1228.06,1733.95C1233.13,1730.4 1217.3,1718.05 1213.66,1712.66C1211.19,1708.99 1211.54,1707.71 1210.33,1705.83C1207.28,1701.09 1201.54,1704 1200.83,1706.2C1200.21,1708.15 1200.14,1708.99 1197.66,1712.66C1194.03,1718.05 1178.2,1730.4 1183.26,1733.95Z" style="fill:rgb(98,175,91);"/>
                </g>
                <g transform="matrix(0.844333,0,0,1.72965,-240.218,-1455.93)">
                    <path d="M939.529,1755.88C940.027,1753.61 941.37,1746.5 932.425,1745.37C922.246,1744.09 884.134,1741.19 876.664,1746.15C871.81,1749.37 872.316,1758.53 866.864,1760.4C859.964,1762.78 832.763,1770.64 835.264,1760.4C838.164,1748.54 874.297,1700.78 884.264,1689.23C888.17,1684.71 890.422,1678.49 890.548,1678.13C894.621,1666.5 892.228,1630.28 884.961,1618.48C877.694,1606.69 848.628,1620.76 841.361,1618.48C837.014,1617.12 836.82,1605.18 841.361,1604.82C869.861,1602.54 983.861,1600.1 1012.36,1604.82C1021.67,1606.36 1003.82,1629.12 1012.36,1633.13C1022.43,1637.85 1062.69,1637.85 1072.76,1633.13C1081.31,1629.12 1067.33,1609.54 1072.76,1604.82C1078.19,1600.1 1100.01,1595.36 1105.36,1604.82C1110.79,1614.42 1099.83,1652.82 1105.36,1662.42C1110.89,1672.01 1133.04,1672.01 1138.56,1662.42C1144.09,1652.82 1121.52,1613.66 1138.56,1604.82C1157.06,1595.22 1231.06,1602.55 1249.56,1604.82C1254.05,1605.37 1254.02,1617.61 1249.56,1618.39C1236.53,1620.65 1184.39,1615.86 1171.36,1618.39C1166.41,1619.35 1166.44,1632.42 1171.36,1633.52C1182.69,1636.04 1228.03,1631.4 1239.36,1633.52C1243.52,1634.3 1243.52,1645.43 1239.36,1646.21C1228.03,1648.33 1182.69,1643.51 1171.36,1646.21C1166.11,1647.46 1166.07,1661.32 1171.36,1662.42C1184.39,1665.12 1236.53,1660.16 1249.56,1662.42C1254.02,1663.19 1254.07,1675.64 1249.56,1675.99C1220.09,1678.25 1102.23,1680.87 1072.76,1675.99C1063.13,1674.39 1081.55,1650.96 1072.76,1646.7C1062.69,1641.82 1022.43,1641.82 1012.36,1646.7C1003.58,1650.96 1017.83,1671.11 1012.36,1675.99C1006.89,1680.87 984.978,1685.49 979.561,1675.99C974.094,1666.4 989.894,1628.07 979.561,1618.48C969.228,1608.9 927.894,1606.69 917.561,1618.48C907.228,1630.28 914.478,1666.56 921.153,1677.93C923.685,1682.25 926.963,1686.24 929.664,1689.23C938.318,1698.83 956.893,1732.06 967.893,1741.66C974.469,1747.4 990.998,1747.54 994.604,1739.59C998.968,1729.98 985.698,1698.75 995.664,1689.13C1005.63,1679.52 1036.22,1683.93 1055.46,1689.13C1077.23,1695.02 1120.82,1714.49 1126.16,1721.56C1126.55,1722.08 1127.2,1723.08 1127.23,1724.14C1127.25,1725.26 1126.87,1725.81 1125.61,1727.49C1120.16,1734.81 1081.18,1754.59 1055.46,1760.4C1029.5,1766.28 1020.65,1756.78 987.023,1761.01C980.434,1761.84 964.955,1768.23 963.825,1774.25C960.27,1793.21 966.24,1822.82 970.464,1831.86C975.179,1841.94 998.298,1841.46 1003.86,1831.86C1009.43,1822.26 985.047,1778.07 1003.86,1774.25C1051.16,1764.65 1237.56,1766.17 1287.66,1774.25C1304.56,1776.98 1301.26,1813.39 1304.46,1822.78C1305.34,1825.35 1306.23,1829.29 1306.86,1830.59C1307.07,1831.01 1308.07,1831.01 1308.26,1830.59C1312.6,1821.2 1322.76,1783.64 1332.86,1774.25C1341.65,1766.08 1360.09,1766.07 1368.86,1774.25C1378.93,1783.64 1388.93,1821.2 1393.26,1830.59C1393.49,1831.07 1394.6,1831.05 1394.86,1830.59C1395.5,1829.46 1396.32,1826.09 1397.06,1823.85C1400.16,1814.46 1405.1,1782.52 1413.46,1774.25C1421.48,1766.34 1445.52,1764.65 1447.26,1774.25C1449.01,1783.85 1420.18,1822.26 1423.96,1831.86C1427.73,1841.46 1464.01,1835.48 1469.89,1831.86C1475.78,1828.23 1470.28,1821.93 1470,1815.01C1469.77,1809.4 1469.49,1806.93 1472.34,1801.53C1476.65,1793.37 1487.06,1773.38 1530.46,1773.38C1537.08,1773.38 1542.93,1774.22 1549.18,1774.25C1576.68,1774.4 1662.42,1770.46 1695.46,1774.25C1714.26,1776.41 1747.46,1783.14 1747.46,1797C1747.46,1807.64 1716.1,1811.47 1714.06,1817.7C1712.03,1823.93 1726.6,1831.99 1735.26,1834.4C1745.26,1837.18 1770.41,1846.8 1774.06,1834.4C1780.53,1812.47 1778.02,1724.74 1774.06,1702.8C1772.66,1695.02 1756.22,1697.52 1750.33,1702.8C1739.63,1712.4 1723.94,1750.8 1709.86,1760.4C1697.75,1768.67 1677.57,1769.25 1665.86,1760.4C1650.16,1748.54 1617.96,1701.09 1615.66,1689.23C1613.36,1677.37 1642.37,1681.93 1652.06,1689.23C1663.5,1697.84 1678.43,1731.51 1684.26,1740.88C1685.21,1742.4 1686.36,1744.7 1687.06,1745.47C1687.38,1745.81 1688.16,1745.82 1688.46,1745.47C1689.13,1744.7 1690.13,1742.37 1691.06,1740.88C1696.93,1731.51 1703.96,1694.35 1723.66,1689.23C1756.83,1680.62 1868.95,1680.17 1890.06,1689.23C1899.75,1693.39 1905.9,1698.49 1890.06,1702.8C1877.98,1706.09 1823.31,1698.85 1811.86,1702.8C1801.22,1706.48 1800.16,1714.45 1811.86,1717.93C1822.5,1721.1 1868.51,1715.84 1879.86,1717.93C1892.3,1720.23 1889.2,1727.58 1879.86,1730.63C1869.78,1733.92 1826.44,1726.72 1817.43,1731.02C1805.39,1736.78 1798.84,1741.17 1811.86,1746.83C1822.43,1751.43 1877.65,1743.86 1890.06,1746.83C1904.87,1750.39 1903.84,1759.68 1890.06,1760.4C1875.53,1761.17 1820.73,1752.58 1806.86,1760.4C1793.24,1768.09 1797.63,1805.04 1806.86,1807.35C1816.1,1809.66 1846.36,1779.77 1862.26,1774.25C1874.86,1769.88 1904.46,1769.23 1902.26,1774.25C1900.06,1779.28 1848.73,1792.56 1849.06,1804.42C1849.4,1816.28 1901.66,1838.59 1904.26,1845.43C1906.86,1852.26 1877.05,1849.99 1864.66,1845.43C1851.63,1840.63 1835.7,1819.72 1826.06,1816.62C1819.16,1814.41 1810.06,1822.08 1806.86,1826.88C1803.66,1831.68 1812.93,1844.25 1806.86,1845.43C1790.9,1848.52 1732.16,1849.64 1711.06,1845.43C1698.04,1842.83 1688.93,1824.35 1680.26,1820.14C1673.91,1817.05 1662.6,1815.93 1659.06,1820.14C1655.53,1824.35 1664.53,1841.21 1659.06,1845.43C1653.6,1849.64 1631.5,1855.03 1626.26,1845.43C1620.8,1835.4 1632.81,1795.31 1626.26,1785.28C1619.72,1775.26 1591.07,1781.2 1586.97,1785.28C1582.87,1789.37 1587.11,1796.11 1589.82,1800.2C1592.02,1803.53 1595.91,1812.49 1593.92,1816.57C1589.17,1826.31 1577.46,1846.4 1530.46,1846.4C1523.19,1846.4 1521.87,1846.71 1507.96,1847.18C1481.92,1848.05 1399.93,1852.78 1373.86,1845.43C1358.32,1841.04 1357.6,1809.61 1353.86,1801.3C1353.01,1799.4 1352.06,1796.5 1351.46,1795.54C1351.25,1795.2 1350.48,1795.2 1350.26,1795.54C1349.66,1796.5 1348.72,1799.4 1347.86,1801.3C1344.13,1809.61 1338.63,1838.07 1327.86,1845.43C1317.1,1852.78 1294.65,1854.98 1283.26,1845.43C1271.85,1835.84 1272.68,1797.51 1259.35,1787.92C1246.02,1778.34 1212.61,1778.34 1203.26,1787.92C1193.92,1797.51 1208.7,1835.84 1203.26,1845.43C1197.9,1854.88 1176.02,1854.88 1170.66,1845.43C1165.23,1835.84 1181.07,1797.51 1170.66,1787.92C1160.26,1778.34 1129.07,1783.94 1112.94,1784.01C1104.16,1784.05 1101.27,1784.04 1094.66,1784.37C1082.78,1784.97 1048.59,1785.3 1036.66,1787.82C1031.73,1788.87 1031.74,1801.86 1036.66,1802.96C1048,1805.48 1093.33,1800.84 1104.66,1802.96C1108.82,1803.73 1108.82,1814.87 1104.66,1815.65C1093.33,1817.76 1048,1812.95 1036.66,1815.65C1031.41,1816.9 1031.37,1830.76 1036.66,1831.86C1049.7,1834.56 1101.83,1829.59 1114.86,1831.86C1119.32,1832.63 1119.38,1845.09 1114.86,1845.43C1084.3,1847.69 970.664,1852.96 931.464,1845.43C908.959,1841.1 888.731,1808.15 879.664,1800.22C878.786,1799.46 877.664,1798.27 877.064,1797.88C876.785,1797.7 876.071,1797.55 876.064,1797.88C875.898,1805.81 881.264,1837.5 876.064,1845.43C870.864,1853.35 849.04,1854.95 844.864,1845.43C839.664,1833.56 837.898,1786.12 844.864,1774.25C851.831,1762.39 874.159,1768.11 886.664,1774.25C901.764,1781.67 926.864,1810.85 935.464,1818.77C936.475,1819.7 937.631,1821.3 938.264,1821.8C938.525,1822.01 939.26,1822.13 939.264,1821.8C939.431,1809.82 936.847,1768.1 939.529,1755.88ZM884.264,1733.95C889.331,1737.49 923.998,1737.49 929.064,1733.95C934.131,1730.4 918.298,1718.05 914.664,1712.66C912.188,1708.99 908.698,1703.47 907.264,1701.63C907.018,1701.32 906.31,1701.32 906.064,1701.63C904.631,1703.47 901.141,1708.99 898.664,1712.66C895.031,1718.05 879.198,1730.4 884.264,1733.95ZM1028.46,1746.83C1032.96,1754.19 1046.76,1749.12 1055.46,1746.83C1066,1744.07 1085.63,1734.83 1091.66,1730.24C1094.57,1728.03 1094.57,1721.51 1091.66,1719.3C1085.63,1714.71 1066,1705.47 1055.46,1702.7C1046.76,1700.42 1032.96,1695.35 1028.46,1702.7C1023.96,1710.06 1023.96,1739.48 1028.46,1746.83ZM1530.46,1832.54C1553.46,1832.54 1561.13,1820.16 1567.26,1815.45C1570.21,1813.2 1570.21,1806.58 1567.26,1804.32C1561.13,1799.62 1555.26,1787.24 1530.46,1787.24C1505.66,1787.24 1499.8,1799.62 1493.66,1804.32C1490.72,1806.58 1490.72,1813.2 1493.66,1815.45C1499.8,1820.16 1507.46,1832.54 1530.46,1832.54ZM1689.66,1787.92C1680.66,1786.49 1664.16,1784.55 1659.06,1787.92C1653.96,1791.29 1653.96,1804.76 1659.06,1808.13C1664.16,1811.5 1680.66,1809.56 1689.66,1808.13C1697.87,1806.83 1709.16,1801.48 1713.06,1799.54C1713.97,1799.09 1713.97,1796.96 1713.06,1796.51C1709.16,1794.58 1697.87,1789.23 1689.66,1787.92ZM1313.95,1760.02C1300.64,1764.08 1254.55,1766.87 1245.46,1760.4C1236.59,1754.09 1241.31,1747.3 1235.66,1746.15C1224.03,1743.78 1187.3,1743.78 1175.66,1746.15C1170.02,1747.3 1171.32,1758.53 1165.86,1760.4C1158.96,1762.78 1131.76,1770.64 1134.26,1760.4C1137.16,1748.54 1167.53,1701.09 1183.26,1689.23C1195.35,1680.12 1216.13,1680.76 1228.66,1689.23C1242.87,1698.83 1257.48,1737.23 1268.48,1746.83C1275.06,1752.57 1291.05,1754.78 1294.66,1746.83C1299.03,1737.23 1275.8,1692.83 1294.66,1689.23C1344.96,1679.63 1546.16,1677.37 1596.46,1689.23C1619.56,1694.68 1601.93,1748.54 1596.46,1760.4C1591.89,1770.33 1569.08,1769.9 1563.66,1760.4C1558.2,1750.82 1574,1712.48 1563.66,1702.9C1553.33,1693.32 1512,1693.32 1501.66,1702.9C1491.33,1712.48 1507.1,1750.82 1501.66,1760.4C1496.31,1769.86 1474.42,1769.86 1469.06,1760.4C1463.63,1750.82 1478.55,1712.48 1469.06,1702.9C1459.58,1693.32 1419.7,1698.17 1418,1702.77C1416.2,1707.63 1415.86,1709.52 1415.86,1713.44C1415.86,1728.09 1380.48,1731.29 1364.31,1733.71C1344.61,1736.66 1339.24,1733.98 1327.46,1737.75C1319.5,1740.31 1329.44,1755.29 1313.95,1760.02ZM1358.06,1702.9C1349.06,1701.31 1332.56,1699.21 1327.46,1702.9C1322.36,1706.59 1322.36,1721.37 1327.46,1725.06C1332.56,1728.76 1349.06,1726.66 1358.06,1725.06C1366.36,1723.59 1379.73,1719.93 1383.55,1717.8C1387.08,1715.83 1385.78,1712.3 1382.67,1709.48C1379.92,1706.99 1366.36,1704.37 1358.06,1702.9ZM1183.26,1733.95C1188.33,1737.49 1223,1737.49 1228.06,1733.95C1233.13,1730.4 1217.3,1718.05 1213.66,1712.66C1211.19,1708.99 1211.54,1707.71 1210.33,1705.83C1207.28,1701.09 1201.54,1704 1200.83,1706.2C1200.21,1708.15 1200.14,1708.99 1197.66,1712.66C1194.03,1718.05 1178.2,1730.4 1183.26,1733.95Z" style="fill:rgb(134,186,129);"/>
                </g>
            </g>
        </g>
    </g>
</svg>
