<?xml version="1.0" encoding="UTF-8" standalone="no"?><!DOCTYPE svg PUBLIC "-//W3C//DTD SVG 1.1//EN" "http://www.w3.org/Graphics/SVG/1.1/DTD/svg11.dtd"><svg width="100%" height="100%" viewBox="0 0 134 134" version="1.1" xmlns="http://www.w3.org/2000/svg" xmlns:xlink="http://www.w3.org/1999/xlink" xml:space="preserve" xmlns:serif="http://www.serif.com/" style="fill-rule:evenodd;clip-rule:evenodd;stroke-linecap:round;stroke-linejoin:round;"><rect id="Artboard1" x="-0" y="0" width="133.333" height="133.333" style="fill:none;"/><path d="M86.613,79.831c0.58,2.462 0.887,5.03 0.887,7.669c-0,18.409 -14.924,33.333 -33.333,33.333l-0,-26.665m32.446,-14.337c20.745,-15.158 34.22,-39.671 34.22,-67.331c-27.658,0.001 -52.169,13.477 -67.326,34.221m33.106,33.11c-9.491,6.936 -20.505,11.913 -32.446,14.337m-0.66,-47.447c-2.464,-0.581 -5.033,-0.888 -7.674,-0.888c-18.409,0 -33.333,14.924 -33.333,33.334l26.671,-0m14.336,-32.446c-6.936,9.492 -11.913,20.505 -14.336,32.446m14.996,15.001c-0.575,0.117 -1.152,0.228 -1.73,0.333c-5.039,-3.995 -9.604,-8.561 -13.599,-13.599c0.105,-0.581 0.216,-1.159 0.333,-1.735m-12.438,13.282c-6.11,4.558 -10.066,11.842 -10.066,20.051c-0,1.316 0.101,2.608 0.297,3.869c1.261,0.196 2.553,0.298 3.869,0.298c8.209,-0 15.494,-3.956 20.052,-10.066m50.782,-56.601c-0,4.602 -3.731,8.333 -8.334,8.333c-4.602,0 -8.333,-3.731 -8.333,-8.333c-0,-4.602 3.731,-8.333 8.333,-8.333c4.603,-0 8.334,3.731 8.334,8.333Z" style="fill:none;fill-rule:nonzero;stroke:#86ba81;stroke-width:8.33px;"/></svg>